<?xml version="1.0" encoding="utf-8"?>
<!-- Generator: Adobe Illustrator 24.1.2, SVG Export Plug-In . SVG Version: 6.00 Build 0)  -->
<svg version="1.1" id="Camada_1" xmlns="http://www.w3.org/2000/svg" xmlns:xlink="http://www.w3.org/1999/xlink" x="0px" y="0px"
	 viewBox="0 0 23 23" style="enable-background:new 0 0 23 23;" xml:space="preserve">
<style type="text/css">
	.st0{fill:#4E4E4E;}
</style>
<path class="st0" d="M22,5.8c0,3.8,0,7.5,0,11.3c-0.1,0.4-0.1,0.8-0.3,1.2c-0.7,2.2-2.7,3.6-5,3.7c-3.5,0-6.9,0-10.4,0
	c-1.1,0-2.1-0.3-3-1C1.8,19.9,1,18.4,1,16.6c0-3.4,0-6.8,0-10.1c0-0.3,0-0.7,0.1-1c0.4-1.9,1.5-3.3,3.3-4c0.5-0.2,1-0.3,1.5-0.4
	c3.8,0,7.5,0,11.3,0c0.1,0,0.3,0.1,0.4,0.1c1.9,0.4,3.3,1.5,4,3.3C21.8,4.8,21.9,5.3,22,5.8z M20.2,11.5
	C20.2,11.5,20.2,11.5,20.2,11.5c0-1.7,0-3.4,0-5.1c0-0.5-0.1-1.1-0.3-1.6c-0.7-1.3-1.7-2-3.2-2c-3.5,0-6.9,0-10.4,0
	c-0.2,0-0.4,0-0.6,0C4.1,3,2.8,4.5,2.8,6.1c0,3.6,0,7.1,0,10.7c0,0.5,0.1,1,0.3,1.4c0.7,1.4,1.8,2.1,3.3,2.1c3.4,0,6.8,0,10.3,0
	c0.2,0,0.5,0,0.7,0c1.6-0.2,2.9-1.7,2.9-3.2C20.3,15.1,20.2,13.3,20.2,11.5z"/>
<path class="st0" d="M16.8,11.5c0,2.9-2.4,5.3-5.3,5.2c-2.9,0-5.2-2.4-5.2-5.3c0-2.9,2.4-5.2,5.3-5.2C14.5,6.3,16.8,8.6,16.8,11.5z
	 M11.5,8C9.6,8,8,9.5,8,11.5c0,1.9,1.5,3.5,3.5,3.5c1.9,0,3.5-1.6,3.5-3.5C15,9.5,13.5,8,11.5,8z"/>
<path class="st0" d="M17.2,7.1c-0.7,0-1.3-0.6-1.3-1.3c0-0.7,0.6-1.3,1.3-1.3c0.7,0,1.3,0.6,1.3,1.3C18.5,6.5,17.9,7.1,17.2,7.1z"/>
</svg>
