<?xml version="1.0" encoding="utf-8"?>
<!-- Generator: Adobe Illustrator 24.1.2, SVG Export Plug-In . SVG Version: 6.00 Build 0)  -->
<svg version="1.1" id="Camada_1" xmlns="http://www.w3.org/2000/svg" xmlns:xlink="http://www.w3.org/1999/xlink" x="0px" y="0px"
	 viewBox="0 0 23 23" style="enable-background:new 0 0 23 23;" xml:space="preserve">
<style type="text/css">
	.st0{fill:#4E4E4E;}
</style>
<path class="st0" d="M0.9,18c2.4,0.2,4.5-0.4,6.4-1.8c-2-0.2-3.3-1.2-4.1-3c0.7,0.1,1.3,0.1,1.9-0.1c-2.6-0.7-3.5-3-3.4-4.3
	c0.6,0.3,1.2,0.5,1.9,0.5C2.6,8.5,1.9,7.5,1.8,6.2c-0.1-1,0.1-1.9,0.6-2.7C4.7,6.3,7.7,7.8,11.3,8c0-0.4-0.1-0.9,0-1.3
	c0.1-1.8,1.4-3.5,3.1-3.9c1.6-0.4,3,0,4.2,1.1C18.7,4,18.8,4.1,18.9,4c0.8-0.2,1.6-0.5,2.4-0.9c0,0,0.1,0,0.2-0.1
	c-0.1,0.5-0.4,1-0.7,1.3c-0.3,0.4-0.7,0.7-1,1c0.8-0.1,1.5-0.3,2.3-0.6c0,0,0,0,0,0.1C21.7,5.2,21.4,5.6,21,6
	c-0.3,0.3-0.7,0.6-1,0.9C20,7,19.9,7.1,19.9,7.2c0,4.5-1.8,8.1-5.4,10.7c-1.5,1.1-3.3,1.7-5.2,2c-1.8,0.2-3.5,0.1-5.3-0.4
	C3,19.1,2,18.7,0.9,18C1,18.1,1,18,0.9,18z"/>
</svg>
