<?xml version="1.0" encoding="UTF-8"?>
<!DOCTYPE svg PUBLIC "-//W3C//DTD SVG 1.1//EN" "http://www.w3.org/Graphics/SVG/1.1/DTD/svg11.dtd">
<!-- Creator: CorelDRAW 2020 (64 Bit) -->
<svg xmlns="http://www.w3.org/2000/svg" xml:space="preserve" width="131.498mm" height="85.725mm" version="1.1" style="shape-rendering:geometricPrecision; text-rendering:geometricPrecision; image-rendering:optimizeQuality; fill-rule:evenodd; clip-rule:evenodd"
viewBox="0 0 678.05 442.03"
 xmlns:xlink="http://www.w3.org/1999/xlink"
 xmlns:xodm="http://www.corel.com/coreldraw/odm/2003">
 <defs>
  <style type="text/css">
   <![CDATA[
    .fil0 {fill:#00A1D3}
    .fil1 {fill:white;fill-rule:nonzero}
   ]]>
  </style>
 </defs>
 <g id="Camada_x0020_1">
  <metadata id="CorelCorpID_0Corel-Layer"/>
  <g id="_2186738294608">
   <rect class="fil0" x="-0" width="678.05" height="442.03" rx="50.48" ry="50.48"/>
   <path class="fil1" d="M124.97 151.88l-62.4 138.09 74.7 0 9.26 -22.02 21.17 0 9.26 22.02 82.23 0 0 -16.8 7.33 16.8 42.53 0 7.33 -17.16 0 17.16 171.01 0 20.79 -21.45 19.47 21.45 87.83 0.18 -62.6 -68.84 62.6 -69.43 -86.47 0 -20.24 21.05 -18.86 -21.05 -186.04 0 -15.97 35.64 -16.35 -35.64 -74.55 0 0 16.23 -8.29 -16.23c0,0 -63.74,0 -63.74,0zm14.45 19.61l36.41 0 41.39 93.64 0 -93.64 39.89 0 31.97 67.14 29.46 -67.14 39.69 0 0 99.09 -24.15 0 -0.2 -77.65 -35.21 77.65 -21.6 0 -35.41 -77.65 0 77.65 -49.68 0 -9.42 -22.21 -50.89 0 -9.4 22.2 -26.62 0c0,0 43.76,-99.07 43.76,-99.07zm240.91 0l98.2 0 30.04 32.44 31 -32.44 30.04 0 -45.64 49.8 45.64 49.23 -31.4 0 -30.04 -32.82 -31.16 32.82 -96.68 0 0 -99.03 0 0zm-223.2 16.77l-16.77 39.57 33.51 0 -16.75 -39.57zm247.45 3.75l0 18.09 53.57 0 0 20.16 -53.57 0 0 19.75 60.09 0 27.92 -29.09 -26.74 -28.93 -61.28 0 0 0.02z"/>
  </g>
 </g>
</svg>
