<?xml version="1.0" encoding="UTF-8"?>
<!DOCTYPE svg PUBLIC "-//W3C//DTD SVG 1.1//EN" "http://www.w3.org/Graphics/SVG/1.1/DTD/svg11.dtd">
<!-- Creator: CorelDRAW 2020 (64 Bit) -->
<svg xmlns="http://www.w3.org/2000/svg" xml:space="preserve" width="131.498mm" height="85.725mm" version="1.1" style="shape-rendering:geometricPrecision; text-rendering:geometricPrecision; image-rendering:optimizeQuality; fill-rule:evenodd; clip-rule:evenodd"
viewBox="0 0 607.24 395.87"
 xmlns:xlink="http://www.w3.org/1999/xlink"
 xmlns:xodm="http://www.corel.com/coreldraw/odm/2003">
 <defs>
  <style type="text/css">
   <![CDATA[
    .fil0 {fill:#FEFEFE}
    .fil1 {fill:black;fill-rule:nonzero}
   ]]>
  </style>
 </defs>
 <g id="Camada_x0020_1">
  <metadata id="CorelCorpID_0Corel-Layer"/>
  <g id="_2187381403856">
   <rect class="fil0" x="-0" width="607.24" height="395.87" rx="45.21" ry="45.21"/>
   <g>
    <g>
     <path class="fil1" d="M157.85 123.75c5.47,-7.03 9.37,-16.4 8.2,-25.77 -8.2,0.39 -17.96,5.47 -23.82,12.1 -5.08,5.86 -9.76,15.62 -8.59,24.6 9.37,1.17 18.35,-3.9 24.21,-10.93l0 0zm8.2 13.27c-13.27,-0.78 -24.6,7.42 -30.84,7.42 -6.25,0 -16.01,-7.03 -26.55,-7.03 -13.66,0.39 -26.16,7.81 -33.19,20.3 -14.06,24.6 -3.9,60.91 10.15,80.82 6.64,9.76 14.84,20.69 25.38,20.3 10.15,-0.39 14.06,-6.64 26.16,-6.64 12.1,0 15.62,6.64 26.55,6.25 10.93,-0.39 17.96,-9.76 24.6,-19.91 7.81,-11.32 10.93,-22.25 10.93,-22.64 -0.39,-0.39 -21.47,-8.2 -21.47,-32.41 -0.39,-20.3 16.4,-30.06 17.18,-30.45 -8.98,-14.06 -23.82,-15.62 -28.89,-16.01l0 0zm0 0l0 0 0 0z"/>
    </g>
    <g>
     <path class="fil1" d="M280.83 109.31c28.89,0 48.8,19.91 48.8,48.41 0,28.89 -20.3,48.8 -49.58,48.8l-31.62 0 0 50.37 -23.04 0 0 -147.58 55.44 0zm-32.41 78.09l26.16 0c19.91,0 31.23,-10.93 31.23,-29.28 0,-18.74 -11.32,-29.28 -31.23,-29.28l-26.55 0 0 58.56 0.39 0zm87.07 39.43c0,-18.74 14.45,-30.45 40.21,-32.02l29.67 -1.56 0 -8.2c0,-12.1 -8.2,-19.13 -21.47,-19.13 -12.88,0 -20.69,6.25 -22.65,15.62l-21.08 0c1.17,-19.52 17.96,-33.97 44.51,-33.97 26.16,0 42.95,13.67 42.95,35.53l0 74.18 -21.08 0 0 -17.57 -0.39 0c-6.25,12.1 -19.91,19.52 -33.97,19.52 -21.86,0 -36.7,-13.27 -36.7,-32.41l0 0zm69.89 -9.76l0 -8.59 -26.55 1.56c-13.27,0.78 -20.69,6.64 -20.69,16.01 0,9.37 7.81,15.62 19.52,15.62 15.62,0 27.72,-10.54 27.72,-24.6zm41.78 80.04l0 -17.96c1.56,0.39 5.47,0.39 7.03,0.39 10.15,0 15.62,-4.29 19.13,-15.23 0,-0.39 1.95,-6.64 1.95,-6.64l-39.04 -107.76 23.82 0 27.33 87.85 0.39 0 27.33 -87.85 23.43 0 -40.21 113.61c-9.37,26.16 -19.91,34.36 -42.17,34.36 -1.56,-0.39 -7.03,-0.39 -8.98,-0.78z"/>
    </g>
   </g>
  </g>
 </g>
</svg>
