<?xml version="1.0" encoding="UTF-8"?>
<!DOCTYPE svg PUBLIC "-//W3C//DTD SVG 1.1//EN" "http://www.w3.org/Graphics/SVG/1.1/DTD/svg11.dtd">
<!-- Creator: CorelDRAW 2020 (64 Bit) -->
<svg xmlns="http://www.w3.org/2000/svg" xml:space="preserve" width="131.498mm" height="85.725mm" version="1.1" style="shape-rendering:geometricPrecision; text-rendering:geometricPrecision; image-rendering:optimizeQuality; fill-rule:evenodd; clip-rule:evenodd"
viewBox="0 0 678.05 442.03"
 xmlns:xlink="http://www.w3.org/1999/xlink"
 xmlns:xodm="http://www.corel.com/coreldraw/odm/2003">
 <defs>
  <style type="text/css">
   <![CDATA[
    .fil1 {fill:#0058A3}
    .fil0 {fill:#FFEE00}
   ]]>
  </style>
 </defs>
 <g id="Camada_x0020_1">
  <metadata id="CorelCorpID_0Corel-Layer"/>
  <g id="_2186938234464">
   <rect class="fil0" x="-0" width="678.05" height="442.03" rx="50.48" ry="50.48"/>
   <g>
    <polygon class="fil1" points="339.06,66.99 186.2,169.44 249.82,210.76 325.84,159.53 295.69,139.72 336.99,112.05 426.62,171.52 426.62,171.52 279.58,270.23 311.38,291.3 494.35,169.46 493.94,169.04 "/>
    <polygon class="fil1" points="491.5,67.03 427.89,109.16 459.7,130.63 491.5,109.16 "/>
    <polygon class="fil1" points="185.15,375.05 248.76,332.92 216.95,311.44 185.15,332.92 "/>
    <polygon class="fil1" points="338.99,374.96 491.85,272.5 428.23,231.19 352.21,282.42 382.37,302.22 341.06,329.9 251.44,270.42 251.44,270.42 398.47,171.71 366.67,150.65 183.7,272.49 184.12,272.9 "/>
   </g>
  </g>
 </g>
</svg>
