<?xml version="1.0" encoding="UTF-8"?>
<!DOCTYPE svg PUBLIC "-//W3C//DTD SVG 1.1//EN" "http://www.w3.org/Graphics/SVG/1.1/DTD/svg11.dtd">
<!-- Creator: CorelDRAW 2020 (64 Bit) -->
<svg xmlns="http://www.w3.org/2000/svg" xml:space="preserve" width="131.498mm" height="85.725mm" version="1.1" style="shape-rendering:geometricPrecision; text-rendering:geometricPrecision; image-rendering:optimizeQuality; fill-rule:evenodd; clip-rule:evenodd"
viewBox="0 0 549.82 358.43"
 xmlns:xlink="http://www.w3.org/1999/xlink"
 xmlns:xodm="http://www.corel.com/coreldraw/odm/2003">
 <defs>
  <style type="text/css">
   <![CDATA[
    .fil0 {fill:#FEFEFE}
    .fil1 {fill:black}
    .fil2 {fill:black;fill-rule:nonzero}
   ]]>
  </style>
 </defs>
 <g id="Camada_x0020_1">
  <metadata id="CorelCorpID_0Corel-Layer"/>
  <g id="_2187348689184">
   <rect class="fil0" x="-0" width="549.82" height="358.43" rx="40.93" ry="40.93"/>
   <g>
    <g>
     <polygon class="fil1" points="136.07,289.94 151.41,289.94 151.41,146.35 136.07,146.35 "/>
     <polygon class="fil1" points="156.24,289.94 160.99,289.94 160.99,146.35 156.24,146.35 "/>
     <polygon class="fil1" points="165.14,289.94 173.64,289.94 173.64,146.35 165.14,146.35 "/>
     <polygon class="fil1" points="181.84,289.94 186.59,289.94 186.59,146.35 181.84,146.35 "/>
     <polygon class="fil1" points="188.66,289.94 192.33,289.94 192.33,146.35 188.66,146.35 "/>
     <polygon class="fil1" points="124.41,289.94 129.17,289.94 129.17,146.35 124.41,146.35 "/>
     <polygon class="fil1" points="113.93,289.94 122.44,289.94 122.44,146.35 113.93,146.35 "/>
     <polygon class="fil1" points="217.72,289.94 233.06,289.94 233.06,146.35 217.72,146.35 "/>
     <polygon class="fil1" points="237.89,289.94 242.64,289.94 242.64,146.35 237.89,146.35 "/>
     <polygon class="fil1" points="246.78,289.94 255.29,289.94 255.29,146.35 246.78,146.35 "/>
     <polygon class="fil1" points="263.49,289.94 268.24,289.94 268.24,146.35 263.49,146.35 "/>
     <polygon class="fil1" points="270.31,289.94 273.97,289.94 273.97,146.35 270.31,146.35 "/>
     <polygon class="fil1" points="206.06,289.94 210.81,289.94 210.81,146.35 206.06,146.35 "/>
     <polygon class="fil1" points="195.58,289.94 204.09,289.94 204.09,146.35 195.58,146.35 "/>
     <polygon class="fil1" points="280,289.94 288.5,289.94 288.5,146.35 280,146.35 "/>
     <polygon class="fil1" points="296.7,289.94 301.46,289.94 301.46,146.35 296.7,146.35 "/>
     <polygon class="fil1" points="303.52,289.94 307.19,289.94 307.19,146.35 303.52,146.35 "/>
     <polygon class="fil1" points="320.92,289.94 325.67,289.94 325.67,146.35 320.92,146.35 "/>
     <polygon class="fil1" points="310.44,289.94 318.95,289.94 318.95,146.35 310.44,146.35 "/>
     <polygon class="fil1" points="331.99,289.94 336.74,289.94 336.74,146.35 331.99,146.35 "/>
     <polygon class="fil1" points="338.81,289.94 342.47,289.94 342.47,146.35 338.81,146.35 "/>
     <polygon class="fil1" points="356.21,289.94 360.96,289.94 360.96,146.35 356.21,146.35 "/>
     <polygon class="fil1" points="345.73,289.94 354.24,289.94 354.24,146.35 345.73,146.35 "/>
     <polygon class="fil1" points="365.1,289.94 380.44,289.94 380.44,146.35 365.1,146.35 "/>
     <polygon class="fil1" points="385.27,289.94 390.02,289.94 390.02,146.35 385.27,146.35 "/>
     <polygon class="fil1" points="394.16,289.94 402.67,289.94 402.67,146.35 394.16,146.35 "/>
     <polygon class="fil1" points="410.87,289.94 415.63,289.94 415.63,146.35 410.87,146.35 "/>
     <polygon class="fil1" points="417.69,289.94 421.35,289.94 421.35,146.35 417.69,146.35 "/>
     <polygon class="fil1" points="427.38,289.94 435.89,289.94 435.89,146.35 427.38,146.35 "/>
    </g>
    <path class="fil2" d="M113.93 69.53l22.84 0c4.53,0 7.9,0.19 10.12,0.56 2.23,0.39 4.22,1.17 5.97,2.35 1.75,1.2 3.22,2.78 4.39,4.76 1.17,1.98 1.75,4.22 1.75,6.67 0,2.66 -0.72,5.12 -2.15,7.34 -1.44,2.23 -3.39,3.9 -5.85,5.01 3.47,1.02 6.13,2.75 8,5.2 1.86,2.45 2.79,5.32 2.79,8.63 0,2.61 -0.6,5.13 -1.81,7.59 -1.21,2.46 -2.86,4.43 -4.96,5.9 -2.09,1.46 -4.67,2.37 -7.74,2.71 -1.91,0.2 -6.55,0.33 -13.91,0.39l-19.45 0 0 -57.12zm11.57 9.49l0 13.16 7.55 0c4.48,0 7.27,-0.07 8.36,-0.2 1.97,-0.23 3.52,-0.9 4.65,-2.03 1.13,-1.13 1.69,-2.61 1.69,-4.44 0,-1.77 -0.49,-3.19 -1.46,-4.29 -0.97,-1.1 -2.42,-1.77 -4.34,-1.99 -1.14,-0.13 -4.43,-0.2 -9.84,-0.2l-6.62 0zm0 22.66l0 15.32 10.69 0c4.15,0 6.79,-0.12 7.91,-0.35 1.72,-0.32 3.11,-1.08 4.19,-2.29 1.08,-1.22 1.62,-2.83 1.62,-4.87 0,-1.73 -0.41,-3.18 -1.25,-4.37 -0.82,-1.2 -2.03,-2.07 -3.6,-2.62 -1.57,-0.55 -4.99,-0.82 -10.24,-0.82l-9.32 0zm43.65 -3.24c0,-5.82 0.88,-10.72 2.62,-14.68 1.29,-2.91 3.07,-5.53 5.32,-7.84 2.25,-2.31 4.71,-4.03 7.38,-5.16 3.56,-1.5 7.67,-2.26 12.33,-2.26 8.43,0 15.16,2.62 20.22,7.84 5.05,5.24 7.58,12.51 7.58,21.83 0,9.24 -2.51,16.47 -7.53,21.69 -5.01,5.22 -11.73,7.83 -20.12,7.83 -8.5,0 -15.26,-2.59 -20.28,-7.79 -5.01,-5.19 -7.53,-12.34 -7.53,-21.46zm11.89 -0.39c0,6.48 1.5,11.38 4.49,14.73 2.99,3.34 6.79,5.01 11.4,5.01 4.61,0 8.39,-1.66 11.36,-4.97 2.95,-3.32 4.43,-8.3 4.43,-14.93 0,-6.55 -1.44,-11.45 -4.32,-14.67 -2.87,-3.23 -6.69,-4.84 -11.46,-4.84 -4.76,0 -8.6,1.63 -11.51,4.89 -2.91,3.27 -4.37,8.19 -4.37,14.77zm52.88 28.6l0 -56.64 11.57 0 0 46.99 28.64 0 0 9.65 -40.21 0zm48.41 0l0 -57.12 42.28 0 0 9.65 -30.71 0 0 12.68 28.56 0 0 9.65 -28.56 0 0 15.48 31.83 0 0 9.65 -43.4 0zm66.06 0l0 -47.47 -16.91 0 0 -9.65 45.31 0 0 9.65 -16.83 0 0 47.47 -11.57 0zm32.06 -28.21c0,-5.82 0.88,-10.72 2.62,-14.68 1.29,-2.91 3.07,-5.53 5.32,-7.84 2.25,-2.31 4.71,-4.03 7.38,-5.16 3.56,-1.5 7.67,-2.26 12.33,-2.26 8.43,0 15.16,2.62 20.22,7.84 5.05,5.24 7.58,12.51 7.58,21.83 0,9.24 -2.51,16.47 -7.53,21.69 -5.01,5.22 -11.73,7.83 -20.12,7.83 -8.5,0 -15.26,-2.59 -20.28,-7.79 -5.01,-5.19 -7.53,-12.34 -7.53,-21.46zm11.89 -0.39c0,6.48 1.5,11.38 4.49,14.73 2.99,3.34 6.79,5.01 11.39,5.01 4.61,0 8.39,-1.66 11.36,-4.97 2.95,-3.32 4.43,-8.3 4.43,-14.93 0,-6.55 -1.44,-11.45 -4.32,-14.67 -2.87,-3.23 -6.69,-4.84 -11.46,-4.84 -4.76,0 -8.6,1.63 -11.51,4.89 -2.91,3.27 -4.37,8.19 -4.37,14.77z"/>
   </g>
  </g>
 </g>
</svg>
