<?xml version="1.0" encoding="UTF-8"?>
<!DOCTYPE svg PUBLIC "-//W3C//DTD SVG 1.1//EN" "http://www.w3.org/Graphics/SVG/1.1/DTD/svg11.dtd">
<!-- Creator: CorelDRAW 2020 (64 Bit) -->
<svg xmlns="http://www.w3.org/2000/svg" xml:space="preserve" width="131.498mm" height="85.725mm" version="1.1" style="shape-rendering:geometricPrecision; text-rendering:geometricPrecision; image-rendering:optimizeQuality; fill-rule:evenodd; clip-rule:evenodd"
viewBox="0 0 607.24 395.87"
 xmlns:xlink="http://www.w3.org/1999/xlink"
 xmlns:xodm="http://www.corel.com/coreldraw/odm/2003">
 <defs>
  <style type="text/css">
   <![CDATA[
    .fil0 {fill:#FEFEFE}
    .fil1 {fill:#0079BE;fill-rule:nonzero}
    .fil2 {fill:white;fill-rule:nonzero}
   ]]>
  </style>
 </defs>
 <g id="Camada_x0020_1">
  <metadata id="CorelCorpID_0Corel-Layer"/>
  <g id="_2185450691776">
   <rect class="fil0" x="-0" width="607.24" height="395.87" rx="45.21" ry="45.21"/>
   <g>
    <path class="fil1" d="M331.42 326.24c70.13,0.34 134.15,-57.2 134.15,-127.19 0,-76.54 -64.01,-129.45 -134.15,-129.42l-60.36 0c-70.97,-0.03 -129.39,52.9 -129.39,129.42 0,70.01 58.42,127.53 129.39,127.19l60.36 0z"/>
    <path class="fil2" d="M271.35 80.23c-64.86,0.02 -117.41,52.59 -117.42,117.47 0.02,64.87 52.57,117.43 117.42,117.45 64.87,-0.02 117.43,-52.58 117.44,-117.45 -0.01,-64.88 -52.57,-117.45 -117.44,-117.47zm-74.43 117.47c0.06,-31.7 19.86,-58.74 47.78,-69.48l0 138.95c-27.92,-10.74 -47.72,-37.76 -47.78,-69.47l0 0zm101.07 69.5l0 -138.99c27.93,10.72 47.76,37.77 47.81,69.49 -0.05,31.73 -19.88,58.76 -47.81,69.5l0 0z"/>
   </g>
  </g>
 </g>
</svg>
