<?xml version="1.0" encoding="UTF-8"?>
<!DOCTYPE svg PUBLIC "-//W3C//DTD SVG 1.1//EN" "http://www.w3.org/Graphics/SVG/1.1/DTD/svg11.dtd">
<!-- Creator: CorelDRAW 2020 (64 Bit) -->
<svg xmlns="http://www.w3.org/2000/svg" xml:space="preserve" width="131.498mm" height="85.725mm" version="1.1" style="shape-rendering:geometricPrecision; text-rendering:geometricPrecision; image-rendering:optimizeQuality; fill-rule:evenodd; clip-rule:evenodd"
viewBox="0 0 767.56 500.38"
 xmlns:xlink="http://www.w3.org/1999/xlink"
 xmlns:xodm="http://www.corel.com/coreldraw/odm/2003">
 <defs>
  <style type="text/css">
   <![CDATA[
    .fil0 {fill:black}
    .fil4 {fill:#FEFEFE;fill-rule:nonzero}
    .fil2 {fill:#00A3DF;fill-rule:nonzero}
    .fil3 {fill:#EE4023;fill-rule:nonzero}
    .fil1 {fill:#FCEF00;fill-rule:nonzero}
   ]]>
  </style>
 </defs>
 <g id="Camada_x0020_1">
  <metadata id="CorelCorpID_0Corel-Layer"/>
  <g id="_2187110605040">
   <rect class="fil0" x="-0" width="767.56" height="500.38" rx="57.14" ry="57.14"/>
   <g>
    <path class="fil1" d="M185.72 188.63c6.47,-2.16 13.38,-3.32 20.58,-3.32 31.39,0 57.59,22.29 63.59,51.92l44.49 -9.07c-10.21,-50.36 -54.71,-88.25 -108.08,-88.25 -12.23,0 -23.98,1.99 -34.97,5.66l14.39 43.06z"/>
    <path class="fil2" d="M133.22 332.81l30.09 -34.02c-13.43,-11.9 -21.9,-29.26 -21.9,-48.61 0,-19.33 8.46,-36.69 21.88,-48.57l-30.09 -34.02c-22.81,20.21 -37.2,49.72 -37.2,82.59 0,32.89 14.4,62.41 37.23,82.62z"/>
    <path class="fil3" d="M269.88 263.21c-6.03,29.62 -32.2,51.87 -63.58,51.87 -7.2,0 -14.13,-1.16 -20.6,-3.33l-14.41 43.08c10.99,3.67 22.76,5.66 35.01,5.66 53.32,0 97.81,-37.83 108.06,-88.15l-44.48 -9.12z"/>
    <path class="fil4" d="M353.28 300.23c-1.46,-2.36 -3.44,-6.14 -4.63,-8.92 -7.05,-16.36 -7.38,-33.28 -1.43,-49.53 6.54,-17.82 19.04,-31.46 35.18,-38.41 20.3,-8.74 42.75,-7.01 62.21,4.53 12.36,7.09 21.12,18.04 27.77,33.52 0.85,1.98 1.59,4.1 2.32,5.9l-121.42 52.91zm40.54 -70.6l0 0c-14.42,6.2 -21.85,19.72 -20.32,35.57l61.07 -26.28c-10.5,-12.34 -24.17,-16.43 -40.75,-9.29zm48.36 57.18l0 0c-0.01,0.01 -0.02,0.02 -0.04,0.03l-1.27 -0.85c-3.64,5.91 -9.33,10.7 -16.5,13.81 -13.65,5.94 -26.3,4.41 -35.38,-3.56l-0.84 1.27c-0.01,-0.01 -0.01,-0.03 -0.03,-0.03l-15.49 23.18c3.85,2.67 7.97,4.94 12.31,6.75 17.11,7.11 34.62,6.78 51.87,-0.72 12.48,-5.41 22.27,-13.65 28.96,-24.1l-23.6 -15.78z"/>
    <path class="fil4" d="M517.14 169.24l0 128.85 20.03 8.12 -11.38 26.56 -22.11 -9.21c-4.96,-2.15 -8.34,-5.44 -10.9,-9.15 -2.44,-3.79 -4.27,-8.98 -4.27,-15.97l0 -129.21 28.64 0z"/>
    <path class="fil4" d="M569.04 265.27c0.01,-10.97 4.85,-20.81 12.52,-27.5l-20.55 -22.92c-13.94,12.32 -22.72,30.33 -22.74,50.39 -0.02,20.07 8.75,38.09 22.67,50.44l20.53 -22.94c-7.63,-6.72 -12.44,-16.53 -12.43,-27.47z"/>
    <path class="fil4" d="M605.56 301.84c-4.05,-0.01 -7.94,-0.68 -11.58,-1.89l-9.82 29.18c6.71,2.25 13.89,3.48 21.36,3.49 32.54,0.03 59.72,-23.06 66.01,-53.76l-30.17 -6.16c-3.43,16.64 -18.16,29.15 -35.81,29.13z"/>
    <path class="fil4" d="M605.65 197.98c-7.46,-0.01 -14.64,1.21 -21.34,3.44l9.73 29.21c3.65,-1.21 7.54,-1.87 11.58,-1.87 17.69,0.02 32.43,12.6 35.78,29.28l30.17 -6.12c-6.21,-30.74 -33.36,-53.91 -65.92,-53.94z"/>
   </g>
  </g>
 </g>
</svg>
