<?xml version="1.0" encoding="UTF-8"?>
<!DOCTYPE svg PUBLIC "-//W3C//DTD SVG 1.1//EN" "http://www.w3.org/Graphics/SVG/1.1/DTD/svg11.dtd">
<!-- Creator: CorelDRAW 2020 (64 Bit) -->
<svg xmlns="http://www.w3.org/2000/svg" xml:space="preserve" width="131.498mm" height="85.725mm" version="1.1" style="shape-rendering:geometricPrecision; text-rendering:geometricPrecision; image-rendering:optimizeQuality; fill-rule:evenodd; clip-rule:evenodd"
viewBox="0 0 502.32 327.47"
 xmlns:xlink="http://www.w3.org/1999/xlink"
 xmlns:xodm="http://www.corel.com/coreldraw/odm/2003">
 <defs>
  <style type="text/css">
   <![CDATA[
    .fil0 {fill:#D10B15}
    .fil1 {fill:#FEFEFE;fill-rule:nonzero}
   ]]>
  </style>
 </defs>
 <g id="Camada_x0020_1">
  <metadata id="CorelCorpID_0Corel-Layer"/>
  <g id="_2181087242656">
   <rect class="fil0" x="-0" width="502.32" height="327.47" rx="37.4" ry="37.4"/>
   <path class="fil1" d="M352.72 180.57c-5.97,5.84 -22.73,7.5 -21.01,-6.47 1.42,-11.6 14.06,-14.07 27.74,-12.39 -1.01,6.35 -2.18,14.41 -6.73,18.86l0 0zm-18.86 -45.26c-0.57,3.2 -1.45,6.1 -2.15,9.16 6.84,-1.71 28.12,-6.97 30.17,2.16 0.68,3.03 -0.49,6.25 -1.35,8.62 -19.25,-1.82 -34.94,1.37 -39.06,15.09 -2.76,9.18 0.31,18.22 6.2,20.75 11.34,4.86 25.13,-0.71 29.9,-8.35 -0.49,2.65 -0.96,5.32 -0.81,8.62l9.97 0c0.11,-9.55 1.5,-17.27 2.96,-25.86 1.25,-7.31 3.61,-14.56 3.23,-21.01 -0.86,-14.79 -25.35,-9.56 -39.07,-9.16l0 0zm99.95 49.84c-7.8,0.17 -11.68,-4.66 -11.85,-12.66 -0.31,-14.01 5.83,-29.59 18.32,-30.98 5.81,-0.65 10.02,0.7 14.27,2.16 -3.91,15.74 -2.5,41.1 -20.74,41.49zm25.86 -74.08c-0.99,8.71 -2.32,17.08 -4.04,25.05 -28.41,-8.99 -45.84,11.91 -45.53,37.72 0.06,4.99 0.92,9.94 4.04,13.47 5.38,6.08 20.78,7.54 28.56,2.42 1.5,-0.99 3.04,-2.79 4.04,-4.04 0.75,-0.94 1.94,-3.4 2.16,-2.69 -0.41,2.73 -1.02,5.27 -1.08,8.35l10.51 0c2.03,-29.05 8.29,-53.85 12.93,-80.28l-11.59 0 0 0zm-296.61 69.77c-6.2,6.56 -21.43,6.47 -22.63,-4.58 -0.52,-4.81 1.27,-9.84 2.16,-14.82 0.89,-5.03 1.54,-9.86 2.42,-14.28 6.1,-7.45 24.04,-8.35 25.86,4.04 1.58,10.76 -2.68,24.2 -7.81,29.63zm9.16 -45.53c-9.8,-3.68 -21.75,0.71 -26.93,4.9 0.02,0.18 -0.12,0.21 -0.28,0.22 0.09,-0.07 0.18,-0.15 0.28,-0.22 -0,-0.02 -0,-0.03 -0,-0.05 0.09,-1.8 0.72,-3.05 0.81,-4.85l-9.97 0c-4.15,27.64 -9.08,54.5 -14.28,81.09l11.58 0c1.68,-10.36 2.78,-21.28 5.12,-30.98 2.65,10.2 19.92,8.25 27.21,4.31 15.04,-8.13 26.64,-46.84 6.46,-54.42l0 0zm54.96 19.4l-27.21 0c0.86,-6.26 6.49,-13.13 15.36,-13.47 8.34,-0.32 14.32,3.06 11.85,13.47l0 0zm-11.05 -20.47c-8.37,0.65 -15.45,3.05 -20.47,8.35 -6.17,6.5 -11.16,20.86 -9.7,33.95 2.09,18.66 25.33,17.99 43.91,13.47 0.32,-3.28 1.11,-6.08 1.62,-9.16 -7.66,2.87 -20.95,6.86 -28.83,1.89 -5.95,-3.76 -5.98,-13.28 -4.04,-21.55 12.49,-0.4 25.47,-0.32 37.98,0 0.79,-5.86 3.06,-12.26 1.08,-18.05 -2.62,-7.65 -12,-9.63 -21.55,-8.89zm-101.83 1.08c-0.31,0.04 -0.29,0.43 -0.27,0.81 -2.55,19.09 -6.01,37.28 -9.7,55.23l11.58 0c2.78,-19.22 5.97,-38.03 9.97,-56.03l-11.58 0 0 0zm302.27 0.27c-10.24,-5.12 -18.76,3.47 -22.09,8.62 0.95,-2.64 1,-6.18 1.89,-8.89l-10.24 0c-2.76,19.24 -6.09,37.91 -9.97,56.03l11.85 0c0.07,-7.43 1.53,-12.92 2.69,-20.2 2.47,-15.55 6.11,-32.61 24.25,-27.48 0.6,-2.63 0.85,-5.61 1.61,-8.08l0 0zm-130.12 42.57c-1.07,-2.76 -1.34,-7.31 -1.08,-10.78 0.6,-7.78 3.43,-17.26 7.81,-21.55 6.04,-5.92 17.97,-4.94 27.48,-1.62 0.29,-3.21 0.94,-6.07 1.35,-9.16 -15.6,-2.55 -30.4,-0.96 -38.25,7.27 -7.69,8.06 -12.72,26.59 -9.16,38.25 4.17,13.64 22.86,14.39 37.98,9.16 0.67,-2.74 1.03,-5.8 1.62,-8.62 -8.27,4.29 -24.08,6.53 -27.75,-2.96zm-6.46 -42.83c-10.27,-4.15 -18.35,2.86 -22.09,9.43 0.85,-2.92 1.2,-6.34 1.89,-9.43l-10.24 0c-2.5,19.41 -6.19,37.63 -9.7,56.04l11.58 0c1.63,-10.92 2.32,-25.65 5.93,-36.1 2.88,-8.35 10.41,-15.46 21.28,-11.58 0.15,-3.08 1.03,-5.43 1.35,-8.35zm-186.69 -22.63c-1.65,10.74 -3.52,21.27 -5.39,31.79 -12,0.13 -24.25,0.59 -35.83,-0.27 2.19,-10.29 3.75,-21.21 5.93,-31.52l-12.93 0c-4.63,26.26 -8.84,52.94 -14.01,78.67l13.2 0c2.07,-13.19 4.01,-26.52 6.73,-39.06 11.26,-0.28 24.75,-0.76 35.56,0.27 -2.23,13.04 -4.92,25.61 -7,38.79l13.2 0c4.24,-26.65 8.71,-53.07 14.01,-78.67l-13.47 0zm32.87 11.85c2.31,-1.59 5.28,-8.84 1.89,-11.85 -1.08,-0.95 -2.88,-1.23 -5.39,-0.81 -2.33,0.39 -3.67,1.19 -4.58,2.42 -1.46,1.99 -2.8,8 -0.54,10.24 2.21,2.17 7.15,1.01 8.62,-0z"/>
  </g>
 </g>
</svg>
