<?xml version="1.0" encoding="UTF-8"?>
<!DOCTYPE svg PUBLIC "-//W3C//DTD SVG 1.1//EN" "http://www.w3.org/Graphics/SVG/1.1/DTD/svg11.dtd">
<!-- Creator: CorelDRAW 2020 (64 Bit) -->
<svg xmlns="http://www.w3.org/2000/svg" xml:space="preserve" width="131.498mm" height="85.725mm" version="1.1" style="shape-rendering:geometricPrecision; text-rendering:geometricPrecision; image-rendering:optimizeQuality; fill-rule:evenodd; clip-rule:evenodd"
viewBox="0 0 549.82 358.43"
 xmlns:xlink="http://www.w3.org/1999/xlink"
 xmlns:xodm="http://www.corel.com/coreldraw/odm/2003">
 <defs>
  <style type="text/css">
   <![CDATA[
    .fil0 {fill:#003E89}
    .fil1 {fill:#FCEF00}
   ]]>
  </style>
 </defs>
 <g id="Camada_x0020_1">
  <metadata id="CorelCorpID_0Corel-Layer"/>
  <g id="_2187640972656">
   <rect class="fil0" x="-0" width="549.82" height="358.43" rx="40.93" ry="40.93"/>
   <path class="fil1" d="M380.94 138.18l21.74 0 26.62 -27.06 -29.28 0 -19.08 27.06zm-7.98 6.65l-31.06 0 0 58.11c0,15.53 3.99,27.06 11.54,34.6 6.65,6.66 15.53,9.76 26.61,9.76 15.53,0 27.06,-6.21 34.16,-18.19l0.45 0 0 15.97 27.5 0 0 -100.26 -31.06 0 0 58.56c0,2.66 -0.44,4.88 -0.88,6.21 -3.55,8.43 -9.76,12.87 -19.08,12.87 -11.98,0 -18.19,-8.43 -18.19,-24.85l0 -52.79 0 0zm-79.85 33.27c-20.41,0 -35.94,3.1 -46.58,9.76 -11.09,6.65 -16.86,16.42 -16.86,29.28 0,7.98 3.11,15.08 8.87,20.85 6.65,6.21 15.08,9.32 25.29,9.32 13.75,0 23.95,-4.44 31.05,-12.87l0.89 0 0 10.65 28.39 0 0 -59c0,-13.31 -3.55,-23.51 -10.2,-31.06 -7.98,-8.43 -19.96,-12.87 -35.93,-12.87 -16.42,0 -30.17,3.1 -40.81,9.76l5.77 19.52c8.87,-5.32 18.63,-7.98 29.72,-7.98 13.75,0 20.41,4.43 20.41,13.75l0 0.89 0 0zm-75.86 -33.27l-19.08 0 0 -33.72 -30.17 0 0 33.72 -14.2 0 0 23.07 14.2 0 0 40.37c0,13.75 2.66,23.95 8.43,29.73 5.77,6.21 14.2,9.32 24.4,9.32 6.65,0 11.98,-0.89 16.86,-2.66l-0.44 -23.51c-0.89,0.89 -2.66,1.33 -5.77,1.33 -4.88,0 -8.43,-1.77 -10.65,-5.33 -1.78,-2.66 -2.66,-7.1 -2.66,-13.75l0 -35.49 19.08 0 0 -23.07zm41.26 69.65c0,-11.98 11.98,-17.3 35.49,-16.86l0 10.65 -0.44 5.77c-1.33,3.99 -3.99,7.1 -7.55,9.32 -3.55,3.1 -7.98,4.44 -12.86,4.44 -9.76,0 -14.64,-4.43 -14.64,-13.31l0 0zm-150.84 -103.37l0 133.98 31.5 0 0 -133.98 -31.5 0z"/>
  </g>
 </g>
</svg>
