<?xml version="1.0" encoding="UTF-8"?>
<!DOCTYPE svg PUBLIC "-//W3C//DTD SVG 1.1//EN" "http://www.w3.org/Graphics/SVG/1.1/DTD/svg11.dtd">
<!-- Creator: CorelDRAW 2020 (64 Bit) -->
<svg xmlns="http://www.w3.org/2000/svg" xml:space="preserve" width="131.498mm" height="85.725mm" version="1.1" style="shape-rendering:geometricPrecision; text-rendering:geometricPrecision; image-rendering:optimizeQuality; fill-rule:evenodd; clip-rule:evenodd"
viewBox="0 0 767.56 500.38"
 xmlns:xlink="http://www.w3.org/1999/xlink"
 xmlns:xodm="http://www.corel.com/coreldraw/odm/2003">
 <defs>
  <style type="text/css">
   <![CDATA[
    .fil0 {fill:#FEFEFE}
    .fil1 {fill:black;fill-rule:nonzero}
    .fil3 {fill:#EB001B;fill-rule:nonzero}
    .fil4 {fill:#F79E1B;fill-rule:nonzero}
    .fil2 {fill:#FF5F00;fill-rule:nonzero}
   ]]>
  </style>
 </defs>
 <g id="Camada_x0020_1">
  <metadata id="CorelCorpID_0Corel-Layer"/>
  <g id="_2181464890048">
   <rect class="fil0" x="-0" width="767.56" height="500.38" rx="57.14" ry="57.14"/>
   <g>
    <g>
     <path class="fil1" d="M244.5 419.36l0 -22.56c0,-8.65 -5.26,-14.29 -14.29,-14.29 -4.51,0 -9.4,1.5 -12.78,6.39 -2.63,-4.14 -6.39,-6.39 -12.03,-6.39 -3.76,0 -7.52,1.13 -10.53,5.26l0 -4.51 -7.89 0 0 36.09 7.89 0 0 -19.92c0,-6.39 3.38,-9.4 8.65,-9.4 5.26,0 7.89,3.38 7.89,9.4l0 19.92 7.89 0 0 -19.92c0,-6.39 3.76,-9.4 8.65,-9.4 5.26,0 7.89,3.38 7.89,9.4l0 19.92 8.65 0 0 0zm116.91 -36.09l-12.78 0 0 -10.9 -7.89 0 0 10.9 -7.14 0 0 7.14 7.14 0 0 16.54c0,8.27 3.38,13.16 12.41,13.16 3.38,0 7.14,-1.13 9.77,-2.63l-2.26 -6.77c-2.26,1.5 -4.89,1.88 -6.77,1.88 -3.76,0 -5.26,-2.26 -5.26,-6.02l0 -16.16 12.78 0 0 -7.14 0 0zm66.91 -0.75c-4.51,0 -7.52,2.26 -9.4,5.26l0 -4.51 -7.9 0 0 36.09 7.9 0 0 -20.3c0,-6.01 2.63,-9.4 7.52,-9.4 1.5,0 3.38,0.38 4.89,0.75l2.26 -7.52c-1.5,-0.38 -3.76,-0.38 -5.26,-0.38l0 0 0 0zm-101.12 3.76c-3.76,-2.63 -9.02,-3.76 -14.66,-3.76 -9.02,0 -15.04,4.51 -15.04,11.65 0,6.02 4.51,9.4 12.4,10.53l3.76 0.38c4.14,0.75 6.39,1.88 6.39,3.76 0,2.63 -3.01,4.51 -8.27,4.51 -5.26,0 -9.4,-1.88 -12.03,-3.76l-3.76 6.01c4.13,3.01 9.77,4.51 15.41,4.51 10.53,0 16.54,-4.89 16.54,-11.65 0,-6.39 -4.89,-9.77 -12.4,-10.9l-3.76 -0.38c-3.38,-0.38 -6.01,-1.13 -6.01,-3.38 0,-2.63 2.63,-4.13 6.77,-4.13 4.51,0 9.02,1.88 11.28,3.01l3.38 -6.39 0 0zm209.77 -3.76c-4.51,0 -7.52,2.26 -9.4,5.26l0 -4.51 -7.89 0 0 36.09 7.89 0 0 -20.3c0,-6.01 2.63,-9.4 7.52,-9.4 1.5,0 3.38,0.38 4.89,0.75l2.26 -7.52c-1.5,-0.38 -3.76,-0.38 -5.26,-0.38l0 0 0 0zm-100.75 18.8c0,10.9 7.52,18.8 19.17,18.8 5.26,0 9.02,-1.13 12.78,-4.13l-3.76 -6.39c-3.01,2.26 -6.02,3.38 -9.4,3.38 -6.39,0 -10.9,-4.51 -10.9,-11.65 0,-6.77 4.51,-11.28 10.9,-11.65 3.38,0 6.39,1.13 9.4,3.38l3.76 -6.39c-3.76,-3.01 -7.52,-4.13 -12.78,-4.13 -11.65,0 -19.17,7.89 -19.17,18.8l0 0 0 0zm72.93 0l0 -18.04 -7.89 0 0 4.51c-2.63,-3.38 -6.39,-5.26 -11.28,-5.26 -10.15,0 -18.04,7.89 -18.04,18.8 0,10.9 7.89,18.8 18.04,18.8 5.26,0 9.02,-1.88 11.28,-5.26l0 4.51 7.89 0 0 -18.04zm-28.95 0c0,-6.39 4.14,-11.65 10.9,-11.65 6.39,0 10.9,4.89 10.9,11.65 0,6.39 -4.51,11.65 -10.9,11.65 -6.77,-0.38 -10.9,-5.26 -10.9,-11.65l0 0zm-94.36 -18.8c-10.53,0 -18.04,7.52 -18.04,18.8 0,11.28 7.52,18.8 18.42,18.8 5.26,0 10.53,-1.5 14.66,-4.89l-3.76 -5.64c-3.01,2.26 -6.77,3.76 -10.53,3.76 -4.89,0 -9.77,-2.26 -10.9,-8.65l26.69 0 0 -3.01c0.38,-11.65 -6.39,-19.17 -16.54,-19.17l0 0 0 0zm0 6.77c4.89,0 8.27,3.01 9.02,8.65l-18.8 0c0.75,-4.89 4.13,-8.65 9.77,-8.65l0 0zm195.86 12.03l0 -32.33 -7.89 0 0 18.8c-2.63,-3.38 -6.39,-5.26 -11.28,-5.26 -10.15,0 -18.04,7.89 -18.04,18.8 0,10.9 7.89,18.8 18.04,18.8 5.26,0 9.02,-1.88 11.28,-5.26l0 4.51 7.89 0 0 -18.04zm-28.95 0c0,-6.39 4.13,-11.65 10.9,-11.65 6.39,0 10.9,4.89 10.9,11.65 0,6.39 -4.51,11.65 -10.9,11.65 -6.77,-0.38 -10.9,-5.26 -10.9,-11.65l0 0zm-263.9 0l0 -18.04 -7.89 0 0 4.51c-2.63,-3.38 -6.39,-5.26 -11.28,-5.26 -10.15,0 -18.04,7.89 -18.04,18.8 0,10.9 7.89,18.8 18.04,18.8 5.26,0 9.02,-1.88 11.28,-5.26l0 4.51 7.89 0 0 -18.04zm-29.32 0c0,-6.39 4.14,-11.65 10.9,-11.65 6.39,0 10.9,4.89 10.9,11.65 0,6.39 -4.51,11.65 -10.9,11.65 -6.77,-0.38 -10.9,-5.26 -10.9,-11.65z"/>
     <rect class="fil2" x="324.57" y="109.22" width="118.42" height="212.77"/>
     <path class="fil3" d="M332.09 215.61c0,-43.23 20.3,-81.57 51.5,-106.39 -22.93,-18.04 -51.88,-28.95 -83.45,-28.95 -74.81,0 -135.33,60.52 -135.33,135.33 0,74.81 60.52,135.33 135.33,135.33 31.58,0 60.52,-10.9 83.45,-28.95 -31.2,-24.44 -51.5,-63.16 -51.5,-106.39z"/>
     <path class="fil4" d="M602.76 215.61c0,74.81 -60.52,135.33 -135.33,135.33 -31.58,0 -60.52,-10.9 -83.45,-28.95 31.58,-24.81 51.5,-63.16 51.5,-106.39 0,-43.23 -20.3,-81.57 -51.5,-106.39 22.93,-18.04 51.88,-28.95 83.45,-28.95 74.81,0 135.33,60.9 135.33,135.33z"/>
    </g>
   </g>
  </g>
 </g>
</svg>
