<svg width="54" height="55" viewBox="0 0 54 55" fill="none" xmlns="http://www.w3.org/2000/svg">
<g id="delivery (1) 1" opacity="0.7">
<g id="Group">
<g id="Group_2">
<path id="Vector" d="M51.6246 19.3638C50.1664 17.7548 48.0895 16.8659 45.7805 16.8659H40.2237V13.8053C40.2237 13.0627 39.6271 12.4551 38.898 12.4551H12.4282C11.6991 12.4551 11.1025 13.0627 11.1025 13.8053V18.5087H5.94337C5.21424 18.5087 4.61768 19.1163 4.61768 19.8589C4.61768 20.6016 5.21424 21.2092 5.94337 21.2092H12.3951C12.4061 21.2092 12.4172 21.2092 12.4282 21.2092C12.4282 21.2092 12.4282 21.2092 12.4393 21.2092C13.1684 21.2092 13.765 20.6016 13.765 19.8589V15.1556H37.5833V18.2161V36.3207H25.0997C25.0444 36.3207 24.9892 36.3207 24.934 36.3319C24.2711 34.6666 22.6692 33.4851 20.8022 33.4851C18.9241 33.4851 17.3223 34.6779 16.6705 36.3544C16.571 36.3319 16.4827 36.3207 16.3832 36.3207H13.765V31.606C13.765 30.8634 13.1684 30.2558 12.4393 30.2558C12.4172 30.2558 12.3951 30.2558 12.373 30.2558C12.3509 30.2558 12.3399 30.2558 12.3178 30.2558H5.94337C5.21424 30.2558 4.61768 30.8634 4.61768 31.606C4.61768 32.3487 5.21424 32.9563 5.94337 32.9563H11.1025V37.6596C11.1025 38.4023 11.6991 39.0099 12.4282 39.0099H16.3722C16.4053 39.0099 16.4274 39.0099 16.4606 39.0099C16.9025 41.0353 18.6811 42.543 20.8022 42.543C22.9233 42.543 24.6909 41.0353 25.1439 39.0099H38.909H41.0301C41.4831 41.024 43.2507 42.543 45.3718 42.543C47.4929 42.543 49.2605 41.0353 49.7134 39.0099H52.6741C53.4033 39.0099 53.9998 38.4023 53.9998 37.6596V26.4414C53.9998 23.5271 53.1713 21.0741 51.6246 19.3638ZM20.8022 39.8538C19.8079 39.8538 19.0015 39.0324 19.0015 38.0197C19.0015 37.007 19.8079 36.1856 20.8022 36.1856C21.7965 36.1856 22.6029 37.007 22.6029 38.0197C22.6029 39.0324 21.7965 39.8538 20.8022 39.8538ZM45.3718 39.8538C44.3775 39.8538 43.571 39.0324 43.571 38.0197C43.571 37.007 44.3775 36.1856 45.3718 36.1856C46.366 36.1856 47.1725 37.007 47.1725 38.0197C47.1615 39.0324 46.355 39.8538 45.3718 39.8538ZM51.3484 36.3207H49.4925C48.8296 34.6666 47.2277 33.4851 45.3718 33.4851C43.5158 33.4851 41.9139 34.6554 41.2511 36.3207H40.2347V19.5664H45.7916C49.2715 19.5664 51.3484 22.1431 51.3484 26.4526V36.3207Z" fill="black"/>
<path id="Vector_2" d="M22.7688 28.2648C22.2496 28.7936 22.2496 29.6488 22.7688 30.1776C23.0229 30.4364 23.3654 30.5714 23.7079 30.5714C24.0503 30.5714 24.3818 30.4364 24.6469 30.1776L28.0606 26.7007L28.0716 26.6895C28.0937 26.6557 28.1268 26.6332 28.1489 26.5995C28.16 26.577 28.171 26.5657 28.1821 26.5432C28.1931 26.5207 28.2042 26.5094 28.2263 26.4869C28.2373 26.4644 28.2484 26.4419 28.2594 26.4194C28.2705 26.3969 28.2815 26.3857 28.2926 26.3632C28.3036 26.3407 28.3146 26.3182 28.3257 26.2957C28.3367 26.2731 28.3478 26.2619 28.3478 26.2394C28.3588 26.2169 28.3588 26.1944 28.3699 26.1719C28.3809 26.1494 28.3809 26.1269 28.392 26.1156C28.403 26.0931 28.403 26.0706 28.403 26.0481C28.403 26.0256 28.4141 26.0031 28.4141 25.9806C28.4141 25.9581 28.4251 25.9356 28.4251 25.9018C28.4251 25.8793 28.4362 25.8681 28.4362 25.8456C28.4472 25.7556 28.4472 25.6655 28.4362 25.5755C28.4362 25.553 28.4362 25.5418 28.4251 25.5193C28.4251 25.4968 28.4141 25.4743 28.4141 25.4405C28.4141 25.418 28.403 25.3955 28.403 25.373C28.403 25.3505 28.392 25.328 28.392 25.3055C28.3809 25.283 28.3809 25.2605 28.3699 25.2492C28.3588 25.2267 28.3588 25.2042 28.3478 25.1817C28.3367 25.1592 28.3257 25.1479 28.3257 25.1254C28.3146 25.1029 28.3036 25.0804 28.2926 25.0579C28.2815 25.0354 28.2705 25.0242 28.2594 25.0017C28.2484 24.9792 28.2373 24.9567 28.2263 24.9342C28.2152 24.9116 28.2042 24.9004 28.1821 24.8779C28.171 24.8554 28.16 24.8441 28.1489 24.8216C28.1268 24.7879 28.0937 24.7654 28.0716 24.7316L28.0606 24.7204L24.8126 21.4123C24.2934 20.8834 23.4538 20.8834 22.9345 21.4123C22.4153 21.9411 22.4153 22.7963 22.9345 23.3251L23.9178 24.3265H1.3257C0.596563 24.3265 0 24.9342 0 25.6768C0 26.4194 0.596563 27.027 1.3257 27.027H23.9067L22.7688 28.2648Z" fill="black"/>
</g>
</g>
</g>
</svg>
