<svg width="14" height="14" viewBox="0 0 14 14" fill="none" xmlns="http://www.w3.org/2000/svg">
<path fill-rule="evenodd" clip-rule="evenodd" d="M4.0637 0C1.82572 0 0 1.82572 0 4.0637V9.9363C0 12.1743 1.82572 14 4.0637 14H9.9363C12.1743 14 14 12.1743 14 9.9363V4.0637C14 1.82572 12.1743 0 9.9363 0H4.0637ZM4.0637 1.07692H9.9363C11.5916 1.07692 12.9231 2.40625 12.9231 4.0637V9.9363C12.9231 11.5916 11.5938 12.9231 9.9363 12.9231H4.0637C2.40835 12.9231 1.07692 11.5938 1.07692 9.9363V4.0637C1.07692 2.40835 2.40625 1.07692 4.0637 1.07692ZM11.0385 2.15385C10.5925 2.15385 10.2308 2.51563 10.2308 2.96154C10.2308 3.40745 10.5925 3.76923 11.0385 3.76923C11.4844 3.76923 11.8462 3.40745 11.8462 2.96154C11.8462 2.51563 11.4844 2.15385 11.0385 2.15385ZM7 3.23077C4.92398 3.23077 3.23077 4.92398 3.23077 7C3.23077 9.07602 4.92398 10.7692 7 10.7692C9.07602 10.7692 10.7692 9.07602 10.7692 7C10.7692 4.92398 9.07602 3.23077 7 3.23077ZM7 4.30769C8.49339 4.30769 9.69231 5.50661 9.69231 7C9.69231 8.49339 8.49339 9.69231 7 9.69231C5.50661 9.69231 4.30769 8.49339 4.30769 7C4.30769 5.50661 5.50661 4.30769 7 4.30769Z" fill="#E9E9E9"/>
</svg>
