<svg width="52" height="23" viewBox="0 0 52 23" fill="none" xmlns="http://www.w3.org/2000/svg">
<path d="M3.9209 8L1.75781 1.75H1.71875C1.73828 1.99089 1.75456 2.23014 1.76758 2.46777C1.7806 2.67285 1.79036 2.88932 1.79688 3.11719C1.80664 3.3418 1.81152 3.54688 1.81152 3.73242V8H0.97168V0.861328H2.31934L4.33105 6.68164H4.36035L6.38184 0.861328H7.72949V8H6.82129V3.66895C6.82129 3.49967 6.82454 3.30599 6.83105 3.08789C6.83757 2.86979 6.8457 2.66146 6.85547 2.46289C6.86849 2.23177 6.87988 1.9974 6.88965 1.75977H6.85059L4.66797 8H3.9209ZM13.3789 8H9.67285V0.861328H13.3789V1.66211H10.5811V3.86914H13.1934V4.66016H10.5811V7.19922H13.3789V8ZM20.0635 0.851562V5.48047C20.0635 5.85156 20.0098 6.19661 19.9023 6.51562C19.7949 6.83464 19.6322 7.11133 19.4141 7.3457C19.1992 7.58008 18.9274 7.764 18.5986 7.89746C18.2731 8.03092 17.889 8.09766 17.4463 8.09766C17.0296 8.09766 16.6618 8.03581 16.3428 7.91211C16.0238 7.78516 15.7552 7.60612 15.5371 7.375C15.3223 7.14388 15.1595 6.86719 15.0488 6.54492C14.9382 6.2194 14.8828 5.85807 14.8828 5.46094V0.861328H15.7959V5.50977C15.7959 6.07943 15.9359 6.52051 16.2158 6.83301C16.499 7.14551 16.9255 7.30176 17.4951 7.30176C17.7848 7.30176 18.0339 7.25781 18.2422 7.16992C18.4505 7.08203 18.6214 6.95833 18.7549 6.79883C18.8883 6.63932 18.9876 6.44889 19.0527 6.22754C19.1178 6.00618 19.152 5.76367 19.1553 5.5V0.851562H20.0635ZM3.93066 16.0186C3.64095 16.0186 3.38379 16.0755 3.15918 16.1895C2.93783 16.3001 2.75065 16.4613 2.59766 16.6729C2.44792 16.8812 2.33398 17.1367 2.25586 17.4395C2.17773 17.7389 2.13867 18.0758 2.13867 18.4502C2.13867 18.8311 2.17285 19.1696 2.24121 19.4658C2.31283 19.762 2.42025 20.0127 2.56348 20.2178C2.70996 20.4196 2.89551 20.5742 3.12012 20.6816C3.34798 20.7858 3.61816 20.8379 3.93066 20.8379C4.22038 20.8379 4.51009 20.8053 4.7998 20.7402C5.09277 20.6751 5.41016 20.5824 5.75195 20.4619V21.7314C5.5957 21.7965 5.44108 21.8519 5.28809 21.8975C5.13509 21.943 4.97884 21.9805 4.81934 22.0098C4.65983 22.0391 4.49544 22.0602 4.32617 22.0732C4.16016 22.0895 3.98112 22.0977 3.78906 22.0977C3.23893 22.0977 2.76204 22.0098 2.3584 21.834C1.95475 21.6582 1.62109 21.4108 1.35742 21.0918C1.09375 20.7728 0.898438 20.3887 0.771484 19.9395C0.644531 19.4902 0.581055 18.9906 0.581055 18.4404C0.581055 17.9001 0.654297 17.4053 0.800781 16.9561C0.947266 16.5036 1.16211 16.1146 1.44531 15.7891C1.72852 15.4635 2.07845 15.2113 2.49512 15.0322C2.91178 14.8499 3.3903 14.7588 3.93066 14.7588C4.28548 14.7588 4.6403 14.8044 4.99512 14.8955C5.35319 14.9834 5.69499 15.1055 6.02051 15.2617L5.53223 16.4922C5.2653 16.3652 4.99674 16.2546 4.72656 16.1602C4.45638 16.0658 4.19108 16.0186 3.93066 16.0186ZM11.3477 22L10.8594 20.3008H8.39844L7.90527 22H6.37695L8.69629 14.832H10.5469L12.876 22H11.3477ZM10.5078 19.0312L10.0488 17.4688C10.0293 17.4102 10 17.3141 9.96094 17.1807C9.92188 17.0472 9.87956 16.9007 9.83398 16.7412C9.79167 16.5785 9.75098 16.4157 9.71191 16.2529C9.67285 16.0902 9.64518 15.9518 9.62891 15.8379C9.61589 15.9095 9.59798 15.9941 9.5752 16.0918C9.55566 16.1895 9.53125 16.2936 9.50195 16.4043C9.47591 16.5117 9.44824 16.6208 9.41895 16.7314C9.38965 16.8421 9.36198 16.9463 9.33594 17.0439C9.3099 17.1416 9.28548 17.2279 9.2627 17.3027C9.24316 17.3776 9.22852 17.4329 9.21875 17.4688L8.76465 19.0312H10.5078ZM15.293 18.0303H15.7031C16.123 18.0303 16.4242 17.9473 16.6064 17.7812C16.7887 17.612 16.8799 17.3646 16.8799 17.0391C16.8799 16.7005 16.7822 16.4596 16.5869 16.3164C16.3916 16.1732 16.0889 16.1016 15.6787 16.1016H15.293V18.0303ZM15.293 19.2607V22H13.7793V14.8613H15.7324C16.6471 14.8613 17.3226 15.0387 17.7588 15.3936C18.195 15.7451 18.4131 16.2806 18.4131 17C18.4131 17.2441 18.3805 17.4655 18.3154 17.6641C18.2503 17.8626 18.1624 18.04 18.0518 18.1963C17.9443 18.3493 17.819 18.4844 17.6758 18.6016C17.5358 18.7155 17.3877 18.8115 17.2314 18.8896C17.5928 19.4691 17.9167 19.9867 18.2031 20.4424C18.3268 20.6377 18.4456 20.8281 18.5596 21.0137C18.6768 21.1992 18.7809 21.3652 18.8721 21.5117C18.9632 21.6582 19.0381 21.7754 19.0967 21.8633L19.1797 22H17.5L15.9521 19.2607H15.293ZM21.5918 18.0303H22.002C22.4219 18.0303 22.723 17.9473 22.9053 17.7812C23.0876 17.612 23.1787 17.3646 23.1787 17.0391C23.1787 16.7005 23.0811 16.4596 22.8857 16.3164C22.6904 16.1732 22.3877 16.1016 21.9775 16.1016H21.5918V18.0303ZM21.5918 19.2607V22H20.0781V14.8613H22.0312C22.946 14.8613 23.6214 15.0387 24.0576 15.3936C24.4938 15.7451 24.7119 16.2806 24.7119 17C24.7119 17.2441 24.6794 17.4655 24.6143 17.6641C24.5492 17.8626 24.4613 18.04 24.3506 18.1963C24.2432 18.3493 24.1178 18.4844 23.9746 18.6016C23.8346 18.7155 23.6865 18.8115 23.5303 18.8896C23.8916 19.4691 24.2155 19.9867 24.502 20.4424C24.6257 20.6377 24.7445 20.8281 24.8584 21.0137C24.9756 21.1992 25.0798 21.3652 25.1709 21.5117C25.262 21.6582 25.3369 21.7754 25.3955 21.8633L25.4785 22H23.7988L22.251 19.2607H21.5918ZM29.0479 22H25.8008V21.1406L26.6699 20.7402V16.1211L25.8008 15.7207V14.8613H29.0479V15.7207L28.1787 16.1211V20.7402L29.0479 21.1406V22ZM36.3037 22H34.3848L31.5771 16.5996H31.5332C31.5527 16.8503 31.569 17.0993 31.582 17.3467C31.5951 17.5583 31.6048 17.7812 31.6113 18.0156C31.6211 18.2467 31.626 18.4551 31.626 18.6406V22H30.2734V14.8613H32.1826L34.9854 20.208H35.0146C35.0049 19.9606 34.9935 19.7165 34.9805 19.4756C34.9772 19.3714 34.9723 19.2656 34.9658 19.1582C34.9626 19.0475 34.9593 18.9385 34.9561 18.8311C34.9528 18.7204 34.9495 18.6146 34.9463 18.5137C34.9463 18.4128 34.9463 18.3216 34.9463 18.2402V14.8613H36.3037V22ZM43.5547 22H42.0459V18.9189H39.6191V22H38.1055V14.8613H39.6191V17.6592H42.0459V14.8613H43.5547V22ZM51.4453 18.4209C51.4453 18.971 51.3802 19.4723 51.25 19.9248C51.123 20.3773 50.9277 20.7646 50.6641 21.0869C50.4004 21.4092 50.0667 21.6582 49.6631 21.834C49.2627 22.0098 48.7891 22.0977 48.2422 22.0977C47.6953 22.0977 47.2201 22.0098 46.8164 21.834C46.416 21.6582 46.084 21.4092 45.8203 21.0869C45.5599 20.7646 45.3646 20.3773 45.2344 19.9248C45.1074 19.4691 45.0439 18.9645 45.0439 18.4111C45.0439 17.8577 45.1074 17.3564 45.2344 16.9072C45.3646 16.4548 45.5615 16.069 45.8252 15.75C46.0889 15.431 46.4209 15.1852 46.8213 15.0127C47.2249 14.8369 47.7018 14.749 48.252 14.749C48.7988 14.749 49.2725 14.8369 49.6729 15.0127C50.0732 15.1852 50.4036 15.4326 50.6641 15.7549C50.9277 16.0739 51.123 16.4596 51.25 16.9121C51.3802 17.3613 51.4453 17.8643 51.4453 18.4209ZM46.6016 18.4209C46.6016 18.7952 46.6341 19.1322 46.6992 19.4316C46.7643 19.7279 46.8636 19.9801 46.9971 20.1885C47.1338 20.3936 47.3047 20.5514 47.5098 20.6621C47.7148 20.7728 47.959 20.8281 48.2422 20.8281C48.5319 20.8281 48.7793 20.7728 48.9844 20.6621C49.1927 20.5514 49.362 20.3936 49.4922 20.1885C49.6257 19.9801 49.7233 19.7279 49.7852 19.4316C49.8503 19.1322 49.8828 18.7952 49.8828 18.4209C49.8828 18.0465 49.8503 17.7113 49.7852 17.415C49.7233 17.1156 49.6257 16.8617 49.4922 16.6533C49.362 16.445 49.1943 16.2855 48.9893 16.1748C48.7842 16.0641 48.5384 16.0088 48.252 16.0088C47.9688 16.0088 47.723 16.0641 47.5146 16.1748C47.3063 16.2855 47.1338 16.445 46.9971 16.6533C46.8636 16.8617 46.7643 17.1156 46.6992 17.415C46.6341 17.7113 46.6016 18.0465 46.6016 18.4209Z" fill="#1A1A1A"/>
</svg>
