<svg width="16" height="16" viewBox="0 0 16 16" fill="none" xmlns="http://www.w3.org/2000/svg">
<path d="M15.9932 12.7664C15.9556 12.4482 15.7743 12.1647 15.5012 11.9969L12.575 10.2185C12.4953 10.1632 12.3895 10.1632 12.3096 10.2185L10.8789 11.2208H10.879C8.42182 9.64904 6.33496 7.56422 4.76133 5.10954L5.76473 3.68035C5.81646 3.59951 5.81646 3.49601 5.76473 3.41518L3.99087 0.505125C3.8257 0.228409 3.5409 0.0442094 3.22055 0.0071085C2.90121 -0.0299887 2.58229 0.0794257 2.35313 0.30461L0.411059 2.24465C0.203701 2.44875 0.0662844 2.71336 0.0186131 3.0003C-0.0290731 3.28712 0.0154339 3.58187 0.145628 3.84198C3.2077 9.97878 6.01068 12.7791 12.1284 15.8573C12.3892 15.9855 12.6837 16.0288 12.9705 15.9813C13.2572 15.9336 13.5219 15.7977 13.7274 15.5921L15.6695 13.6521C15.9109 13.4241 16.0309 13.0959 15.9932 12.7662L15.9932 12.7664ZM15.3458 13.2837L13.4038 15.2237C13.2707 15.3589 13.0981 15.4486 12.9109 15.48C12.7237 15.5113 12.5314 15.4827 12.3615 15.3983C6.34106 12.4365 3.58332 9.64948 0.559984 3.65458C0.475598 3.48468 0.446985 3.29255 0.478343 3.10564C0.509699 2.91857 0.599432 2.74636 0.734829 2.61343L2.6769 0.673391C2.78498 0.570037 2.92862 0.512153 3.07833 0.511721H3.14307C3.31517 0.530053 3.46863 0.628208 3.55734 0.776889L5.25981 3.55761L4.2499 4.99331V4.99316C4.19528 5.07544 4.19528 5.18255 4.2499 5.26483C5.89415 7.87867 8.10703 10.0891 10.7235 11.7316C10.8048 11.7899 10.9142 11.7899 10.9954 11.7316L12.4326 10.7293L15.2421 12.4365C15.3908 12.5251 15.4892 12.6784 15.5076 12.8503C15.5253 13.011 15.4681 13.1709 15.3521 13.2836L15.3458 13.2837Z" fill="white"/>
</svg>
