<svg width="24" height="23" viewBox="0 0 24 23" fill="none" xmlns="http://www.w3.org/2000/svg">
<path fill-rule="evenodd" clip-rule="evenodd" d="M21.3268 18.8278C20.8686 18.8278 20.4867 18.9818 20.1049 19.367C19.7994 19.6751 19.5703 20.1372 19.5703 20.5994C19.5703 21.0616 19.723 21.4467 20.1049 21.8319C20.4104 22.14 20.8686 22.3711 21.3268 22.3711C21.785 22.3711 22.1669 22.217 22.5487 21.8319C22.8542 21.5237 23.0833 21.0616 23.0833 20.5994C23.0833 20.1372 22.9306 19.7521 22.5487 19.367C22.1669 18.9818 21.785 18.8278 21.3268 18.8278Z" fill="#1A1A1A"/>
<path fill-rule="evenodd" clip-rule="evenodd" d="M10.3292 18.8278C9.87103 18.8278 9.48917 18.9818 9.10733 19.367C8.80185 19.6751 8.57275 20.1372 8.57275 20.5994C8.57275 21.0616 8.72549 21.4467 9.10733 21.8319C9.4128 22.14 9.87103 22.3711 10.3292 22.3711C10.7875 22.3711 11.1693 22.217 11.5511 21.8319C11.8566 21.5237 12.0857 21.0616 12.0857 20.5994C12.0857 20.1372 11.933 19.7521 11.5511 19.367C11.1693 18.9818 10.7875 18.8278 10.3292 18.8278Z" fill="#1A1A1A"/>
<path fill-rule="evenodd" clip-rule="evenodd" d="M23.9994 4.19247H6.89271C6.89271 4.11544 6.35814 2.03568 6.35814 1.88162C6.35814 1.72756 6.28176 1.57351 6.28176 1.49648C6.28176 1.41945 6.20538 1.26539 6.20538 1.11134C6.12901 0.957281 6.05269 0.880258 5.97632 0.80323L5.74718 0.572145C5.59445 0.495117 5.51811 0.495117 5.36537 0.495117H0.0195312V2.18973H4.67803L7.73281 15.2845L8.42006 17.9805H23.5411V16.2859H10.0239L9.56559 14.5142L23.2357 12.8196C23.4648 12.8196 23.6175 12.6656 23.7702 12.5115C23.923 12.3574 23.9994 12.1264 23.9994 11.9723V4.19247Z" fill="#1A1A1A"/>
</svg>
