<svg width="23" height="21" viewBox="0 0 23 21" fill="none" xmlns="http://www.w3.org/2000/svg">
<path d="M22.0988 3.67557C21.6984 2.81277 21.0705 2.00019 20.2833 1.43412C15.5738 -2.27272 11.374 2.00932 11.374 5.21856C11.374 2.00932 7.17416 -2.27272 2.4647 1.43412C1.67752 2.00019 1.04959 2.81277 0.649176 3.67557C-0.0151522 5.109 -0.142558 6.77981 0.144105 8.31824C0.817534 11.9155 3.5977 14.65 6.31872 16.8686C7.82029 18.0921 9.38555 19.2379 10.8371 20.5161C11.0191 20.6759 11.1965 20.8357 11.374 21C11.5514 20.8357 11.7289 20.6759 11.9109 20.5161C13.367 19.2379 14.9277 18.0921 16.4293 16.8686C19.1503 14.65 21.9304 11.9155 22.6039 8.31824C22.8951 6.77981 22.7631 5.10443 22.0988 3.67557Z" fill="#1A1A1A"/>
</svg>
