<svg width="31" height="29" viewBox="0 0 31 29" fill="none" xmlns="http://www.w3.org/2000/svg">
<path d="M29.2037 5.49276L29.2035 5.49214C28.7192 4.43464 27.9656 3.45603 27.0498 2.78861L27.0322 2.77578L27.0152 2.7622C25.544 1.58872 24.1726 1.09259 22.9678 1.01202C21.7618 0.931358 20.6508 1.26216 19.6914 1.86051C17.7262 3.08598 16.4986 5.36445 16.4986 7.20658H15.4986H14.4986C14.4986 5.36445 13.271 3.08598 11.3059 1.86051C10.3464 1.26216 9.23547 0.931358 8.02941 1.01202C6.82467 1.09259 5.4532 1.58872 3.98209 2.7622L3.96506 2.77578L3.94746 2.78861C3.03178 3.45593 2.27829 4.43434 1.79401 5.49167L29.2037 5.49276ZM29.2037 5.49276C30.0096 7.24936 30.1831 9.34842 29.8179 11.3035L29.8175 11.3054M29.2037 5.49276L29.8175 11.3054M29.8175 11.3054C28.9705 15.891 25.4484 19.4679 21.7504 22.5237C21.0319 23.117 20.2852 23.7108 19.5303 24.3112C18.1976 25.3711 16.8394 26.4513 15.5656 27.5846C15.5432 27.6045 15.5209 27.6244 15.4986 27.6443C15.4766 27.6247 15.4546 27.605 15.4325 27.5853C14.1599 26.4497 12.7971 25.3669 11.4607 24.305C10.7075 23.7066 9.9627 23.1147 9.24712 22.5239C5.54915 19.4682 2.02698 15.8913 1.17979 11.3058C0.819849 9.34765 0.988099 7.25427 1.79379 5.49214L29.8175 11.3054Z" stroke="black" stroke-width="2"/>
</svg>
