<svg width="40" height="19" viewBox="0 0 40 19" fill="none" xmlns="http://www.w3.org/2000/svg">
<path d="M9.49989 19C6.98016 19 4.56393 17.9991 2.78236 16.2176C1.00085 14.4359 0 12.0197 0 9.50011C0 6.98061 1.00085 4.56415 2.78236 2.78259C4.56409 1.00085 6.98033 0 9.49989 0C12.0194 0 14.4359 1.00085 16.2174 2.78259C17.9991 4.56409 19 6.98055 19 9.50011C19 12.0198 17.9991 14.4361 16.2174 16.2176C14.4359 17.9991 12.0194 19 9.49989 19ZM9.49989 0.867642C7.1993 0.867642 4.99306 1.7814 3.36618 3.40806C1.7393 5.03472 0.825765 7.24096 0.825765 9.54177C0.825765 11.8421 1.73952 14.0484 3.36618 15.6749C4.99284 17.3015 7.19908 18.2155 9.49989 18.2155C11.8003 18.2155 14.0065 17.3015 15.633 15.6749C17.2596 14.0483 18.1736 11.842 18.1736 9.54177C18.1736 7.24118 17.2596 5.03494 15.633 3.40806C14.0064 1.78117 11.8001 0.867642 9.49989 0.867642Z" fill="white"/>
<path d="M29.5533 19C27.0338 19 24.6174 17.9991 22.8358 16.2176C21.0541 14.4359 20.0532 12.0197 20.0532 9.50011C20.0532 6.98061 21.0541 4.56415 22.8358 2.78259C24.6173 1.00085 27.0338 0 29.5533 0C32.0729 0 34.4893 1.00085 36.2709 2.78259C38.0526 4.56409 39.0534 6.98055 39.0534 9.50011C39.0534 12.0198 38.0526 14.4361 36.2709 16.2176C34.4894 17.9991 32.0729 19 29.5533 19ZM29.5533 0.867642C27.2527 0.867642 25.0467 1.7814 23.4196 3.40806C21.793 5.03472 20.8792 7.24096 20.8792 9.54177C20.8792 11.8421 21.793 14.0484 23.4196 15.6749C25.0465 17.3016 27.2525 18.2155 29.5533 18.2155C31.8541 18.2155 34.0599 17.3015 35.687 15.6749C37.3137 14.0483 38.2275 11.842 38.2275 9.54177C38.2275 7.24118 37.3137 5.03494 35.687 3.40806C34.0602 1.7814 31.8541 0.867642 29.5533 0.867642Z" fill="white"/>
<path d="M17.013 4.31638L16.3936 3.77119C17.1779 2.87835 18.2971 2.35018 19.4848 2.31181C20.6726 2.27345 21.8231 2.7285 22.6637 3.56861L22.0812 4.15103C21.4014 3.47276 20.4714 3.10574 19.5114 3.13708C18.5515 3.16822 17.6473 3.59514 17.0131 4.31631L17.013 4.31638Z" fill="white"/>
<path d="M3.23422 16.5008C3.12443 16.5015 3.01879 16.4584 2.94104 16.381C2.78072 16.2201 2.78072 15.9598 2.94104 15.7988L5.948 12.7919C6.02554 12.7137 6.13097 12.6697 6.24118 12.6697C6.3514 12.6697 6.45682 12.7137 6.53436 12.7919C6.69468 12.9528 6.69468 13.2131 6.53436 13.3741L3.5274 16.381C3.44964 16.4584 3.34399 16.5015 3.23422 16.5008Z" fill="white"/>
<path d="M5.36965 17.8145C5.20172 17.8154 5.05012 17.7147 4.98565 17.5599C4.92139 17.4048 4.95711 17.2262 5.07626 17.1081L10.6981 11.4824C10.8593 11.3223 11.1193 11.3223 11.2805 11.4824C11.4406 11.6436 11.4406 11.9039 11.2805 12.0648L5.67151 17.6783C5.5944 17.7636 5.48505 17.8131 5.37005 17.8146L5.36965 17.8145Z" fill="white"/>
<path d="M23.5431 16.5007C23.4346 16.5003 23.331 16.4574 23.2539 16.3809C23.0938 16.22 23.0938 15.9597 23.2539 15.7987L26.2608 12.7918H26.261C26.4248 12.6513 26.669 12.6609 26.8217 12.8133C26.9742 12.966 26.9838 13.2102 26.8433 13.374L23.8363 16.381C23.7583 16.4583 23.6529 16.5014 23.5431 16.5007Z" fill="white"/>
<path d="M25.2368 17.8144C25.0689 17.8153 24.9173 17.7147 24.8528 17.5598C24.7886 17.4047 24.8243 17.2261 24.9434 17.1081L30.5653 11.4823C30.7291 11.3421 30.9735 11.3514 31.1259 11.5041C31.2786 11.6566 31.288 11.901 31.1477 12.0648L25.5304 17.6783C25.4552 17.7617 25.3494 17.8109 25.2372 17.8146L25.2368 17.8144Z" fill="white"/>
</svg>
