<svg width="18" height="14" viewBox="0 0 18 14" fill="none" xmlns="http://www.w3.org/2000/svg">
<path fill-rule="evenodd" clip-rule="evenodd" d="M18 0C17.298 0.4051 15.8895 0.95719 15.0615 1.11643C15.0372 1.12255 15.0174 1.13043 14.994 1.13655C14.2623 0.434848 13.2597 0 12.15 0C9.9135 0 8.1 1.76301 8.1 3.93725C8.1 4.05187 8.0901 4.26273 8.1 4.37473C5.0823 4.37473 2.7855 2.83832 1.1385 0.874945C0.9594 1.31242 0.8811 2.00362 0.8811 2.65283C0.8811 3.87863 1.8666 5.08256 3.4011 5.82889C3.1185 5.89976 2.8071 5.9505 2.4831 5.9505C1.9602 5.9505 1.4067 5.81664 0.9 5.41066C0.9 5.42554 0.9 5.43954 0.9 5.45528C0.9 7.16843 2.7702 8.33473 4.4334 8.65933C4.0959 8.8527 3.4155 8.87195 3.0834 8.87195C2.8494 8.87195 2.0214 8.76783 1.8 8.72758C2.2626 10.1319 3.9312 10.9211 5.5215 10.9491C4.2777 11.8975 3.4146 12.2492 0.8676 12.2492H0C1.6092 13.2519 3.6585 14 5.7123 14C12.3993 14 16.2 9.04519 16.2 4.37473C16.2 4.29948 16.1982 4.14199 16.1955 3.98363C16.1955 3.96788 16.2 3.953 16.2 3.93725C16.2 3.91363 16.1928 3.89088 16.1928 3.86726C16.1901 3.74827 16.1874 3.63715 16.1847 3.5794C16.8957 3.08068 17.5122 2.4586 18 1.74989C17.3475 2.03162 16.6473 2.22061 15.912 2.30636C16.6626 1.86888 17.7291 0.825948 18 0Z" fill="#E9E9E9"/>
</svg>
