<svg width="34" height="26" viewBox="0 0 34 26" fill="none" xmlns="http://www.w3.org/2000/svg">
<path fill-rule="evenodd" clip-rule="evenodd" d="M0 1.61905C0 0.724872 0.492556 0 1.10015 0H32.8998C33.5074 0 34 0.724872 34 1.61905C34 2.51322 33.5074 3.2381 32.8998 3.2381H1.10015C0.492556 3.2381 0 2.51322 0 1.61905Z" fill="black"/>
<path fill-rule="evenodd" clip-rule="evenodd" d="M0 12.7499C0 11.8557 0.492556 11.1309 1.10015 11.1309H32.8998C33.5074 11.1309 34 11.8557 34 12.7499C34 13.6441 33.5074 14.369 32.8998 14.369H1.10015C0.492556 14.369 0 13.6441 0 12.7499Z" fill="black"/>
<path fill-rule="evenodd" clip-rule="evenodd" d="M0 23.8808C0 22.9866 0.492556 22.2617 1.10015 22.2617H32.8998C33.5074 22.2617 34 22.9866 34 23.8808C34 24.7749 33.5074 25.4998 32.8998 25.4998H1.10015C0.492556 25.4998 0 24.7749 0 23.8808Z" fill="black"/>
</svg>
