<svg width="20" height="20" viewBox="0 0 20 20" fill="none" xmlns="http://www.w3.org/2000/svg">
<path d="M19.1783 4.17208H3.54072L3.30827 1.58255C3.27025 1.15907 2.91534 0.834595 2.49019 0.834595H0.821367C0.367738 0.834595 0 1.20233 0 1.65596C0 2.10959 0.367738 2.47733 0.821367 2.47733H1.73926C2.24088 8.06583 0.944454 -6.37837 2.68395 13.0021C2.75099 13.7607 3.16085 14.5838 3.86692 15.1431C2.59391 16.7688 3.75705 19.1654 5.82779 19.1654C7.54648 19.1654 8.7587 17.4513 8.16931 15.8278H12.6648C12.0761 17.4492 13.2857 19.1654 15.0063 19.1654C16.3794 19.1654 17.4965 18.0483 17.4965 16.6752C17.4965 15.3021 16.3794 14.185 15.0063 14.185H5.83335C5.20942 14.185 4.66571 13.8086 4.43104 13.2602L17.5576 12.4887C17.9159 12.4677 18.2191 12.2163 18.3062 11.868L19.9752 5.19265C20.1046 4.67503 19.7127 4.17208 19.1783 4.17208ZM5.82779 17.5227C5.36055 17.5227 4.98038 17.1425 4.98038 16.6752C4.98038 16.208 5.36055 15.8278 5.82779 15.8278C6.29507 15.8278 6.67525 16.208 6.67525 16.6752C6.67525 17.1425 6.29507 17.5227 5.82779 17.5227ZM15.0062 17.5227C14.539 17.5227 14.1588 17.1425 14.1588 16.6752C14.1588 16.208 14.539 15.8278 15.0062 15.8278C15.4735 15.8278 15.8537 16.208 15.8537 16.6752C15.8537 17.1425 15.4735 17.5227 15.0062 17.5227ZM16.8589 10.8842L4.20993 11.6276L3.68817 5.81477H18.1263L16.8589 10.8842Z" fill="#1E7BC4"/>
</svg>
