<svg width="43" height="39" viewBox="0 0 43 39" fill="none" xmlns="http://www.w3.org/2000/svg">
<path fill-rule="evenodd" clip-rule="evenodd" d="M31.0901 33.4729C30.4215 33.4729 29.8643 33.6977 29.3071 34.2597C28.8614 34.7093 28.5271 35.3836 28.5271 36.058C28.5271 36.7324 28.75 37.2944 29.3071 37.8563C29.7529 38.3059 30.4215 38.6431 31.0901 38.6431C31.7587 38.6431 32.3159 38.4183 32.873 37.8563C33.3188 37.4068 33.6531 36.7324 33.6531 36.058C33.6531 35.3836 33.4302 34.8217 32.873 34.2597C32.3159 33.6977 31.7587 33.4729 31.0901 33.4729Z" fill="white"/>
<path fill-rule="evenodd" clip-rule="evenodd" d="M15.0435 33.4729C14.3749 33.4729 13.8177 33.6977 13.2605 34.2597C12.8148 34.7093 12.4805 35.3836 12.4805 36.058C12.4805 36.7324 12.7033 37.2944 13.2605 37.8563C13.7062 38.3059 14.3749 38.6431 15.0435 38.6431C15.7121 38.6431 16.2692 38.4183 16.8264 37.8563C17.2722 37.4068 17.6064 36.7324 17.6064 36.058C17.6064 35.3836 17.3836 34.8217 16.8264 34.2597C16.2692 33.6977 15.7121 33.4729 15.0435 33.4729Z" fill="white"/>
<path fill-rule="evenodd" clip-rule="evenodd" d="M34.9904 12.1177H10.0291C10.0291 12.0053 9.24902 8.97057 9.24902 8.74578C9.24902 8.52099 9.13757 8.2962 9.13757 8.1838C9.13757 8.0714 9.02612 7.84661 9.02612 7.62182C8.91469 7.39703 8.80333 7.28464 8.69189 7.17224L8.35754 6.83505C8.13468 6.72266 8.02328 6.72266 7.80042 6.72266H0V9.19537H6.79749L11.2549 28.3027L12.2577 32.2366H34.3217V29.7639H14.5979L13.9292 27.1787L33.876 24.706C34.2103 24.706 34.4331 24.4812 34.656 24.2565C34.8789 24.0317 34.9904 23.6945 34.9904 23.4697V12.1177Z" fill="white"/>
</svg>
