<svg width="30" height="32" viewBox="0 0 30 32" fill="none" xmlns="http://www.w3.org/2000/svg">
<path d="M3.35803 18.3164C5.01026 16.4375 7.14913 15.085 9.52221 14.4179C7.92632 12.8945 6.99459 10.7712 6.93866 8.52952C6.88273 6.28762 7.70713 4.11757 9.22497 2.51163C10.7428 0.90569 12.8253 0 15.0001 0C17.1748 0 19.257 0.905749 20.7752 2.51163C22.293 4.11757 23.1174 6.28762 23.0615 8.52952C23.0055 10.7712 22.074 12.8945 20.4781 14.4179C23.2065 15.1869 25.6152 16.8572 27.3351 19.1728C29.0549 21.4884 29.991 24.3219 30 27.2386V28.8879C29.9991 29.713 29.6809 30.5041 29.1151 31.0875C28.5494 31.6707 27.7822 31.999 26.9822 32H3.01761H3.01784C2.21778 31.9991 1.45064 31.6707 0.884851 31.0875C0.319073 30.5041 0.000925064 29.713 0 28.8879V27.2386C0.000677109 23.9365 1.19877 20.7539 3.3586 18.3162L3.35803 18.3164ZM1.9392 28.8883C1.93942 29.1832 2.05308 29.4657 2.25535 29.674C2.4574 29.8824 2.73138 29.9998 3.0173 30.0001H26.9813C27.2672 29.9998 27.5412 29.8824 27.7432 29.674C27.9455 29.4657 28.0592 29.1832 28.0594 28.8883V27.2389C28.0361 24.452 27.023 21.7705 25.2115 19.7024C23.4001 17.634 20.9163 16.3225 18.2299 16.0157C17.9181 15.9836 17.6351 15.8141 17.4533 15.5509C17.2718 15.2874 17.2096 14.9558 17.2826 14.6417C17.3557 14.3273 17.5571 14.061 17.8347 13.9112C19.4666 13.0327 20.6286 11.4438 20.9995 9.58436C21.3702 7.72499 20.9104 5.79211 19.7471 4.32083C18.584 2.84955 16.8406 1.99565 14.9999 1.99565C13.1589 1.99565 11.4158 2.84955 10.2525 4.32083C9.08941 5.79211 8.6296 7.72499 9.00033 9.58436C9.37128 11.4437 10.5333 13.0327 12.1652 13.9112L12.1729 13.9157V13.9154C12.4484 14.0673 12.6473 14.3342 12.7184 14.6479C12.7894 14.9616 12.7258 15.2918 12.5438 15.5537C12.3618 15.8158 12.0793 15.9841 11.7685 16.0157C9.08217 16.3225 6.59831 17.634 4.78693 19.7024C2.97548 21.7706 1.96231 24.452 1.9391 27.2389L1.9392 28.8883Z" fill="black"/>
</svg>
