<svg width="35" height="33" viewBox="0 0 35 33" fill="none" xmlns="http://www.w3.org/2000/svg">
<path d="M33.5619 5.9004H6.19624L5.78946 1.32232C5.72293 0.573652 5.10184 0 4.35782 0H1.43739C0.64354 0 0 0.65013 0 1.45211C0 2.25409 0.64354 2.90422 1.43739 2.90422H3.04371C3.92154 12.7842 1.65279 -12.7519 4.69691 21.5112C4.81423 22.8523 5.53148 24.3075 6.76709 25.2963C4.53934 28.1704 6.57482 32.4074 10.1986 32.4074C13.2063 32.4074 15.3277 29.3769 14.2963 26.5067H22.1633C21.1332 29.3733 23.25 32.4074 26.261 32.4074C28.6639 32.4074 30.6188 30.4325 30.6188 28.005C30.6188 25.5774 28.6639 23.6025 26.261 23.6025H10.2083C9.11647 23.6025 8.16499 22.937 7.7543 21.9674L30.7257 20.6036C31.3528 20.5664 31.8834 20.1219 32.0358 19.5062L34.9565 7.70468C35.1829 6.78958 34.4972 5.9004 33.5619 5.9004ZM10.1986 29.5032C9.38095 29.5032 8.71564 28.8311 8.71564 28.005C8.71564 27.1788 9.38095 26.5067 10.1986 26.5067C11.0164 26.5067 11.6817 27.1788 11.6817 28.005C11.6817 28.8311 11.0164 29.5032 10.1986 29.5032ZM26.2609 29.5032C25.4432 29.5032 24.7779 28.8311 24.7779 28.005C24.7779 27.1788 25.4432 26.5067 26.2609 26.5067C27.0786 26.5067 27.7439 27.1788 27.7439 28.005C27.7439 28.8311 27.0786 29.5032 26.2609 29.5032ZM29.503 17.767L7.36737 19.0811L6.45429 8.80455H31.721L29.503 17.767Z" fill="black"/>
</svg>
