<svg width="305" height="110" viewBox="0 0 305 110" fill="none" xmlns="http://www.w3.org/2000/svg">
<path d="M220.164 41.0204H209.244V78.4004C209.239 79.105 208.668 79.6749 207.964 79.6804H199.554C198.849 79.675 198.279 79.105 198.274 78.4004V41.0204H187.274C186.941 41.0339 186.616 40.9117 186.375 40.6818C186.134 40.4518 185.996 40.1337 185.994 39.8004V33.1804C185.996 32.847 186.134 32.529 186.375 32.299C186.616 32.069 186.941 31.9468 187.274 31.9604H220.144C220.853 31.9264 221.456 32.4715 221.494 33.1804V39.8004C221.456 40.5011 220.865 41.0431 220.164 41.0204V41.0204Z" fill="#4E4E4E"/>
<path d="M255.184 79.4304C250.879 80.0461 246.532 80.327 242.184 80.2704C233.894 80.2704 226.574 78.1504 226.574 66.4604V45.1304C226.574 33.4404 233.964 31.3904 242.244 31.3904C246.559 31.3312 250.872 31.6088 255.144 32.2204C256.044 32.3504 256.424 32.6704 256.424 33.5004V39.5004C256.419 40.205 255.848 40.7749 255.144 40.7804H241.644C238.644 40.7804 237.534 41.7804 237.534 45.1504V50.9904H254.674C255.378 50.9958 255.948 51.5657 255.954 52.2704V58.3704C255.949 59.075 255.378 59.6449 254.674 59.6504H237.534V66.4604C237.534 69.8004 238.624 70.8304 241.644 70.8304H255.184C255.888 70.8358 256.458 71.4057 256.464 72.1104V78.1104C256.474 78.9104 256.084 79.3004 255.184 79.4304V79.4304Z" fill="#4E4E4E"/>
<path d="M303.644 79.6804H293.434C292.722 79.7333 292.054 79.333 291.764 78.6804L282.904 64.6804L274.904 78.4204C274.454 79.1904 274.004 79.7004 273.294 79.7004H263.814C263.566 79.7449 263.311 79.6768 263.117 79.5146C262.924 79.3523 262.813 79.1127 262.814 78.8604C262.827 78.7033 262.871 78.5503 262.944 78.4104L276.874 55.2204L262.814 33.1804C262.742 33.062 262.697 32.9286 262.684 32.7904C262.732 32.2841 263.177 31.9099 263.684 31.9504H274.024C274.734 31.9504 275.244 32.5904 275.634 33.1704L283.854 46.1704L291.854 33.1704C292.144 32.5129 292.753 32.0517 293.464 31.9504H302.974C303.481 31.9099 303.926 32.2841 303.974 32.7904C303.961 32.9286 303.917 33.062 303.844 33.1804L289.844 55.3504L304.414 78.3504C304.527 78.5459 304.592 78.7651 304.604 78.9904C304.484 79.4304 304.154 79.6804 303.644 79.6804V79.6804Z" fill="#4E4E4E"/>
<path d="M170.614 32.0904C170.134 32.0797 169.715 32.4113 169.614 32.8804L160.284 67.4004C160.154 68.1104 159.964 68.4004 159.384 68.4004C158.804 68.4004 158.614 68.1404 158.484 67.4004L149.184 32.8804C149.083 32.4113 148.664 32.0797 148.184 32.0904H139.004C138.696 32.0828 138.402 32.2178 138.206 32.4562C138.011 32.6945 137.936 33.0097 138.004 33.3104C138.004 33.3104 149.394 72.8804 149.514 73.3104C151.034 78.0304 154.724 80.3104 159.414 80.3104C163.914 80.4718 167.966 77.6064 169.314 73.3104C169.494 72.7704 180.634 33.3104 180.634 33.3104C180.698 33.0112 180.622 32.699 180.427 32.4631C180.232 32.2272 179.94 32.0935 179.634 32.1004L170.614 32.0904Z" fill="#4E4E4E"/>
<path d="M118.584 0.000409645H22.8639C19.4002 0.0320764 16.2028 1.86456 14.4246 4.83711C12.6464 7.80966 12.5438 11.4935 14.1539 14.5604L23.7339 32.8004H6.37389C4.15602 32.7601 2.08241 33.8964 0.923053 35.7876C-0.236307 37.6787 -0.308267 40.0422 0.733892 42.0004L31.5339 100.2C32.6391 102.29 34.8096 103.598 37.1739 103.598C39.5382 103.598 41.7087 102.29 42.8139 100.2L51.1739 84.4304L61.6739 104.29C63.3811 107.515 66.7306 109.531 70.3789 109.531C74.0272 109.531 77.3767 107.515 79.0839 104.29L127.084 14.0404C128.673 11.0698 128.578 7.48126 126.833 4.59927C125.088 1.71728 121.953 -0.0307472 118.584 0.000409645ZM75.8139 38.1304L54.8139 77.5104C54.0924 78.8706 52.6786 79.7211 51.1389 79.7211C49.5992 79.7211 48.1854 78.8706 47.4639 77.5104L26.7339 38.5104C26.0943 37.3102 26.1317 35.8624 26.8323 34.6967C27.5329 33.5311 28.7939 32.8188 30.1539 32.8204H72.5739C73.852 32.8007 75.0453 33.4585 75.7111 34.5497C76.3769 35.6409 76.416 37.0028 75.8139 38.1304V38.1304Z" fill="#4E4E4E"/>
</svg>
