<?xml version="1.0" encoding="UTF-8"?>
<!DOCTYPE svg PUBLIC "-//W3C//DTD SVG 1.1//EN" "http://www.w3.org/Graphics/SVG/1.1/DTD/svg11.dtd">
<!-- Creator: CorelDRAW 2020 (64 Bit) -->
<svg xmlns="http://www.w3.org/2000/svg" xml:space="preserve" width="217.609mm" height="86.836mm" version="1.1" style="shape-rendering:geometricPrecision; text-rendering:geometricPrecision; image-rendering:optimizeQuality; fill-rule:evenodd; clip-rule:evenodd"
viewBox="0 0 7257.88 2896.23"
 xmlns:xlink="http://www.w3.org/1999/xlink"
 xmlns:xodm="http://www.corel.com/coreldraw/odm/2003">
 <defs>
  <style type="text/css">
   <![CDATA[
    .fil8 {fill:none}
    .fil2 {fill:#FEFEFE}
    .fil0 {fill:#221929}
    .fil5 {fill:#0054A8}
    .fil6 {fill:#0054A8}
    .fil7 {fill:#0056BC}
    .fil4 {fill:#008006}
    .fil3 {fill:#ED0000}
    .fil1 {fill:#ED6F00}
   ]]>
  </style>
 </defs>
 <g id="Camada_x0020_1">
  <metadata id="CorelCorpID_0Corel-Layer"/>
  <g id="_1962333593760">
   <g>
    <path class="fil0" d="M43.29 2010.01l0 -114.34 70.26 0 0 114.34 -70.26 0zm0 826.56l0 -621.29 70.26 0 0 621.29 -70.26 0zm3250.43 -826.56l0 -114.34 70.26 0 0 114.34 -70.26 0zm0 826.56l0 -621.29 70.26 0 0 621.29 -70.26 0zm172.43 0l0 -26.17 406.39 -529 -377.46 0 0 -66.13 491.8 0 0 27.55 -406.39 528.99 406.39 0 0 64.75 -520.73 0zm952.14 -124.9l0 -194.7c-89.77,1.38 -160.49,17.45 -212.61,48.45 -52.12,31 -78.06,71.87 -78.06,122.61 0,31.92 10.79,57.17 32.38,75.54 21.35,18.37 50.97,27.55 88.85,27.55 25.49,0 51.89,-6.43 79.21,-19.29 27.32,-12.63 57.4,-32.83 90.23,-60.16zm1.38 64.52c-34.44,26.63 -66.58,45.46 -96.43,56.94 -29.85,11.48 -61.07,17.22 -93.91,17.22 -50.97,0 -92.53,-14.92 -124.21,-44.54 -31.92,-29.62 -47.76,-67.96 -47.76,-115.03 0,-68.65 30.99,-122.84 92.99,-162.33 62.22,-39.49 151.54,-61.76 267.94,-66.58l0 -65.9c0,-46.61 -11.02,-80.59 -33.29,-101.94 -22.27,-21.35 -57.4,-31.92 -105.85,-31.92 -30.08,0 -60.39,5.97 -90.92,18.14 -30.3,12.17 -63.59,31.45 -99.42,57.86l0 -67.96c34.9,-23.42 68.42,-40.64 100.56,-51.89 32.15,-11.25 63.83,-16.76 95.29,-16.76 71.41,0 122.84,16.53 154.75,49.36 31.92,33.06 47.75,86.79 47.75,161.18l0 325.8c0,13.54 1.84,23.42 5.28,30.07 3.68,6.43 9.42,9.65 16.99,9.65 10.79,0 29.39,-11.71 55.8,-34.9 6.43,-5.97 11.02,-10.11 14.23,-12.86l0.69 62.68c-20.21,18.83 -38.8,33.06 -56.02,42.47 -16.99,9.42 -32.15,14.01 -45.23,14.01 -19.74,0 -34.21,-5.74 -43.39,-17.22 -9.19,-11.48 -14.47,-29.85 -15.85,-55.56zm296.41 60.39l0 -137.76 89.54 0 0 137.76 -89.54 0zm748.03 -24.8c-25.48,12.63 -51.2,22.04 -77.15,28.01 -25.72,6.2 -52.35,9.19 -79.67,9.19 -95.74,0 -174.27,-30.3 -235.8,-90.92 -61.53,-60.62 -92.29,-138.22 -92.29,-232.81 0,-92.07 31.69,-168.98 95.05,-230.75 63.14,-61.99 142.81,-92.99 238.32,-92.99 23.42,0 46.61,2.29 69.8,6.66 22.96,4.59 46.38,11.48 69.56,20.89l0 77.15c-23.65,-13.77 -47.75,-23.88 -71.86,-30.3 -24.34,-6.43 -49.83,-9.65 -76.69,-9.65 -69.11,0 -127.89,25.26 -176.1,75.77 -48.21,50.28 -72.33,111.82 -72.33,184.6 0,73.01 24.11,134.55 72.1,184.36 47.99,49.83 106.77,74.62 176.33,74.62 25.95,0 52.35,-4.37 78.99,-12.86 26.63,-8.49 53.95,-21.12 81.73,-38.11l0 77.15zm141.66 -285.16c0,72.09 24.34,133.4 72.79,183.68 48.45,50.28 106.76,75.31 175.41,75.31 68.19,0 126.28,-25.03 174.27,-75.31 47.98,-50.28 72.1,-111.59 72.1,-183.68 0,-72.78 -23.88,-134.32 -71.64,-184.6 -47.75,-50.51 -106.07,-75.77 -174.72,-75.77 -69.34,0 -128.12,25.26 -176.1,75.77 -47.98,50.28 -72.1,111.82 -72.1,184.6zm-75.76 -1.38c0,-90.23 31.46,-166.69 94.14,-229.6 62.68,-62.68 139.37,-94.14 230.06,-94.14 89.54,0 165.77,31.46 228.91,94.59 62.91,62.91 94.36,139.37 94.36,229.14 0,42.71 -8.49,84.03 -25.25,124.21 -16.76,40.18 -40.41,75.54 -70.94,106.07 -30.77,30.77 -65.67,54.19 -104.24,69.8 -38.57,15.84 -79.44,23.65 -122.84,23.65 -90.69,0 -167.38,-31.23 -230.06,-93.91 -62.68,-62.68 -94.14,-139.14 -94.14,-229.83zm769.85 311.34l0 -621.29 68.88 0 0 99.42c28.7,-37.2 60.15,-64.98 94.36,-83.11 34.44,-18.14 71.64,-27.33 112.05,-27.33 46.61,0 85.18,9.88 115.72,29.85 30.3,19.98 56.25,52.35 77.15,96.66 34.67,-43.39 69.79,-75.54 105.84,-95.97 35.82,-20.43 75.08,-30.54 117.79,-30.54 67.73,0 119.85,22.05 156.82,65.9 36.73,44.09 55.11,106.54 55.11,187.81l0 378.61 -70.26 0 0 -345.78c0,-74.85 -12.4,-130.64 -37.42,-167.61 -24.8,-36.96 -62.45,-55.56 -112.51,-55.56 -41.33,0 -78.52,11.02 -111.81,33.29 -33.06,22.27 -61.53,54.87 -85.41,97.81l0 437.84 -68.88 0 0 -345.78c0,-74.85 -12.63,-130.64 -37.66,-167.61 -25.25,-36.96 -63.14,-55.56 -113.65,-55.56 -40.41,0 -77.15,11.02 -109.98,33.06 -33.06,21.81 -62.22,54.65 -87.24,98.04l0 437.84 -68.88 0zm-6022.14 -74.85l0 -208.93c70.94,44.08 130.64,74.62 179.32,92.29 48.68,17.45 95.74,26.18 141.66,26.18 46.15,0 81.04,-7.12 104.92,-21.13 23.65,-14.23 35.59,-35.13 35.59,-62.91 0,-22.5 -7.35,-40.64 -22.27,-54.18 -14.69,-13.77 -49.13,-30.08 -103.32,-48.91 -134.09,-47.06 -226.38,-95.28 -276.9,-144.41 -50.28,-49.14 -75.54,-111.82 -75.54,-188.04 0,-80.36 32.84,-145.57 98.5,-195.85 65.67,-50.28 151.08,-75.3 256.46,-75.3 53.26,0 106.99,6.43 160.71,19.51 53.73,13.09 107,32.15 159.34,57.17l0 193.32c-63.14,-31.92 -119.85,-55.56 -170.13,-70.71 -50.05,-15.38 -95.74,-22.96 -137.07,-22.96 -44.77,0 -78.98,6.43 -102.4,19.52 -23.65,13.09 -35.36,31.69 -35.36,55.79 0,19.75 10.56,38.35 31.68,55.56 20.9,17.45 52.81,33.75 95.29,49.59 8.95,3.68 22.73,8.73 41.1,15.39 89.77,33.29 154.06,61.76 193.09,85.41 40.87,25.02 71.64,57.4 92.53,96.89 20.9,39.49 31.23,85.64 31.23,138.45 0,87.02 -32.84,155.21 -98.5,205.03 -65.9,49.82 -157.05,74.62 -273.68,74.62 -58.32,0 -114.57,-7.57 -169.21,-22.73 -54.42,-15.38 -106.77,-38.11 -157.05,-68.65zm818.52 74.85l0 -637.82 201.13 0 0 637.82 -201.13 0zm-6.89 -844.24c0,-30.08 10.33,-55.56 31.22,-76.45 20.9,-20.89 46.15,-31.23 76.23,-31.23 30.54,0 56.02,10.33 76.45,30.99 20.67,20.67 31,46.15 31,76.69 0,30.31 -10.33,55.56 -31,76.23 -20.43,20.66 -45.92,30.99 -76.45,30.99 -30.08,0 -55.33,-10.33 -76.23,-31.23 -20.89,-20.9 -31.22,-46.15 -31.22,-76zm354.04 844.24l0 -637.82 199.75 0 0 80.36c31.46,-32.38 64.29,-55.79 98.96,-70.49 34.44,-14.92 73.93,-22.27 118.47,-22.27 69.8,0 123.53,21.12 160.72,63.6 37.19,42.24 55.79,103.32 55.79,183.22l0 403.41 -201.13 0 0 -375.85c0,-45.23 -7.35,-78.52 -21.81,-99.42 -14.7,-21.12 -37.43,-31.68 -68.42,-31.68 -27.78,0 -53.73,8.49 -77.61,25.48 -24.1,16.99 -45.69,42.24 -64.97,75.31l0 406.16 -199.75 0zm1111.72 -152.46l0 -156.13c-68.65,24.11 -114.57,45.46 -137.53,63.6 -23.19,18.13 -34.67,39.72 -34.67,64.74 0,20.66 6.2,36.97 18.83,49.14 12.63,12.17 29.84,18.14 51.89,18.14 14.69,0 30.53,-3.45 47.75,-10.1 16.99,-6.66 34.9,-16.53 53.72,-29.39zm10.1 93.45c-30.07,24.34 -61.3,42.25 -93.91,53.96 -32.37,11.71 -67.27,17.45 -104.46,17.45 -61.54,0 -107.91,-14.92 -139.37,-44.77 -31.46,-29.85 -47.07,-74.16 -47.07,-132.94 0,-51.2 23.19,-93.22 69.57,-126.28 46.38,-33.06 148.09,-72.33 305.14,-117.55 0.46,-2.3 0.69,-4.82 0.92,-7.35 0.23,-2.75 0.46,-6.43 0.46,-11.02 0,-30.31 -10.33,-52.81 -30.53,-67.27 -20.44,-14.47 -51.89,-21.82 -94.6,-21.82 -35.81,0 -72.55,8.73 -110.44,26.18 -37.65,17.45 -74.39,42.7 -110.21,75.76l2.76 -158.42c38.57,-25.95 81.05,-45.23 127.43,-58.09 46.38,-12.62 98.49,-19.05 156.36,-19.05 92.07,0 158.65,17.68 199.75,53.04 41.33,35.36 61.99,91.84 61.99,169.68l0 254.16c0,14.92 2.06,25.02 5.97,30.99 4.13,5.74 10.79,8.73 20.2,8.73 8.73,0 17.45,-1.15 26.64,-3.45 9.18,-2.07 21.58,-6.43 36.73,-12.63l0 111.58c-36.28,17.45 -68.65,30.31 -96.66,38.34 -28.01,8.04 -54.65,12.17 -79.67,12.17 -31.92,0 -56.94,-5.97 -75.08,-17.91 -18.14,-11.94 -28.7,-29.62 -31.92,-53.5zm366.21 59.01l0 -940.9 201.13 0 0 940.9 -201.13 0z"/>
    <path class="fil1" d="M3871.28 56.08c-139.75,46.55 -120.93,130.29 -120.78,291.07 0.19,204.9 -12.86,1127.25 7.98,1198.94 33.16,114.06 151.77,111.28 288.33,111.16 199.36,-0.17 1141.59,11.22 1204.27,-10.48 118.57,-41.05 108.91,-144.66 108.79,-291.1 -0.17,-204.12 12.48,-1123.81 -8.04,-1194.15 -34.21,-117.29 -143.16,-114.98 -283.24,-114.84 -201.48,0.2 -1131.25,-12.6 -1197.32,9.41z"/>
    <path class="fil2" d="M4234.98 1280l1.6 0 0 -440.9 65.33 0 0 689.19 522.65 0 0 -689.19 65.33 0 0 269 0 171.89 0 116.19c0,38.54 31.54,70.04 70.1,70.04l0.01 0c38.56,0 70.1,-31.5 70.1,-70.04l0 -116.19 0 -171.89 0 -300.89c0,-123.4 -101.09,-224.36 -224.61,-224.36l-217.65 0 0 205.37c6.88,15.96 21.41,15.22 23.89,-7.92 10.12,-81.24 45.25,-88.82 99.6,-23.88 55.56,62.4 75.66,139.8 71.7,227.62 0.23,99.07 -25.47,158.22 -90.03,157.57 -50.02,-1.18 -79.54,-23.46 -92.41,-62.86l-37.05 -0.39 -38.6 0.39c-12.88,39.4 -42.39,61.68 -92.41,62.86 -64.56,0.65 -90.26,-58.5 -90.03,-157.57 -3.96,-87.82 16.14,-165.22 71.7,-227.62 54.34,-64.94 89.48,-57.36 99.6,23.88 2.49,23.14 17.01,23.88 23.89,7.92l0 -205.37 -218.24 0c-123.56,0 -224.68,101.01 -224.68,224.42l0 300.84 0 171.89 0 116.19c0,38.54 31.54,70.04 70.1,70.04l0.01 0c38.56,0 70.1,-31.5 70.1,-70.04l0 -116.19z"/>
    <path class="fil2" d="M4592.07 176.08c101.14,0 183.22,81.51 184.02,182.37l-134.03 0c-57.39,0 -104.36,46.92 -104.36,104.25l0 72.9c-75.1,-23.17 -129.68,-93.06 -129.68,-175.69 0,-101.52 82.4,-183.83 184.05,-183.83zm177.51 232.47c-21.35,77.92 -92.73,135.21 -177.51,135.21l-4.22 -0.06 0 -64.79c0,-38.71 31.68,-70.35 70.43,-70.35l111.3 0z"/>
    <path class="fil2" d="M4657.98 897.51c25.29,0 45.8,20.49 45.8,45.78 0,19.49 -12.18,36.14 -29.37,42.72 7.5,6.7 12.23,16.46 12.23,27.32 0,20.23 -16.41,36.6 -36.64,36.6 -19.89,0 -36.03,-15.74 -36.65,-35.43l-0.79 0.01c-12.55,0 -23.6,-6.27 -30.21,-15.84 -3.37,16.76 -18.15,29.37 -35.92,29.37 -1.69,0 -3.37,-0.12 -5,-0.33 -4.35,15.36 -18.49,26.6 -35.25,26.6 -13.37,0 -25.03,-7.12 -31.45,-17.77 -9.25,9.03 -21.91,14.58 -35.86,14.58 -28.43,0 -51.41,-22.95 -51.41,-51.3 0,-24.67 17.37,-45.26 40.58,-50.21 -9.89,-3.22 -17.03,-12.49 -17.03,-23.45 0,-13.63 11.04,-24.67 24.7,-24.67l1.21 0.03c-2.21,-5 -3.44,-10.51 -3.44,-16.33 0,-22.32 18.09,-40.4 40.44,-40.4 9.67,0 18.53,3.4 25.49,9.06 2.77,-19.62 19.64,-34.71 40.05,-34.71 22.33,0 40.42,18.08 40.42,40.4 0,4.98 -0.91,9.75 -2.56,14.13l1.76 -0.03c22.84,0 41.75,16.71 45.22,38.56 8.37,-9.04 20.34,-14.68 33.65,-14.68z"/>
    <path class="fil2" d="M5059.47 301.04c34.53,0 62.54,27.98 62.54,62.47 0,9.99 -2.35,19.42 -6.53,27.79 10.31,4.38 18.04,13.64 20.25,24.87 10.7,-5.92 23,-9.3 36.09,-9.3 41.12,0 74.48,33.32 74.48,74.4 0,41.1 -33.36,74.42 -74.48,74.42 -6.46,0 -12.72,-0.81 -18.69,-2.35 -14.95,37.73 -51.8,64.43 -94.87,64.43 -56.28,0 -101.97,-45.64 -101.97,-101.89 0,-5.96 0.52,-11.81 1.5,-17.48 -6.17,5.95 -14.55,9.6 -23.8,9.6 -12.5,0 -23.43,-6.68 -29.43,-16.66 -7.33,18.35 -25.28,31.33 -46.26,31.33 -27.49,0 -49.79,-22.28 -49.79,-49.74 0,-13.93 5.74,-26.54 14.99,-35.56 -11.04,-5.69 -18.59,-17.19 -18.59,-30.46 0,-18.91 15.35,-34.25 34.28,-34.25 3.62,0 7.08,0.58 10.35,1.6 -1.56,-4.91 -2.4,-10.12 -2.4,-15.53 0,-28.33 23.02,-51.33 51.38,-51.33 13.77,0 26.31,5.43 35.53,14.25l-0.07 -2.32c0,-22.41 18.2,-40.58 40.63,-40.58 22.43,0 40.63,18.17 40.63,40.58l0 0.01c11.32,-11.32 26.95,-18.32 44.24,-18.32z"/>
    <path class="fil3" d="M43.16 234.85l-0.03 1232.36c0,135.36 66.22,192.87 199.28,192.87l1221.92 0c152.04,0 195.74,-67.36 195.74,-217.27l-0.01 -1207.96c-0.08,-133.15 -63.43,-191.7 -195.73,-191.7l-1221.92 -0.01c-131.61,0.01 -199.25,56.67 -199.25,191.71z"/>
    <ellipse class="fil2" cx="767.72" cy="488.09" rx="104.84" ry="104.69"/>
    <path class="fil2" d="M1300.72 427.4l0.02 0.01c16.48,28.81 6.36,65.85 -22.49,82.31l-443.28 252.95 0 220.36 199.16 -122.87c30.33,-18.74 69.5,-12.18 92.32,13.77l271.17 270.79c23.49,23.44 23.5,61.85 0,85.31l-0.02 0.01c-23.49,23.47 -61.95,23.44 -85.43,0l-230.08 -229.75 -222.95 137.57 443.65 278.13c28.14,17.63 36.72,55.06 19.05,83.16l-0.01 0.01c-17.66,28.11 -55.16,36.65 -83.28,19.02l-634.11 -397.51 -7.96 -5.26 0 -422.32 -262.35 -425.23c-17.42,-28.24 -8.55,-65.6 19.74,-83l0.02 -0.02c28.28,-17.41 65.7,-8.53 83.12,19.72l263.17 426.54 121.78 0 396.34 -226.15c28.83,-16.46 65.94,-6.36 82.42,22.44z"/>
    <path class="fil2" d="M320.05 1216.1c65.74,170.84 235.32,292.5 434.2,292.5 28.95,0 57.28,-2.61 84.76,-7.54 -174.56,-18.67 -319.91,-131.47 -381.03,-284.96l-137.93 0z"/>
    <path class="fil4" d="M2027.82 54.79c-140.3,39.43 -127.68,121.94 -127.46,279.84 0.3,222.35 -15.56,1103.16 5.07,1196.31 27.63,124.77 136.54,124.54 273.26,124.24 215.31,-0.47 1124.47,14.56 1205.79,-5.81 125.5,-31.44 122.22,-145.59 122.01,-282.84 -0.33,-220.39 15.32,-1109.55 -5.86,-1199.94 -28.41,-121.23 -146.93,-119.7 -278.23,-119.5 -207.21,0.32 -1120.76,-13.04 -1194.58,7.7z"/>
    <path class="fil2" d="M2045.48 172.72l916.48 0c45.03,0 81.86,36.86 81.86,81.89l0 65.5 0 49 0 29.69c0,9.91 8.1,18.06 18.05,18.06l346.54 0 0 75.79 -358.49 0c-45,0 -81.86,-36.84 -81.86,-81.89l0 -41.64 0 -49 0 -53.54c0,-9.94 -8.12,-18.06 -18.05,-18.06l-904.53 0 0 -75.79z"/>
    <path class="fil2" d="M2378.42 675.63l-132.1 163.72c-13.32,16.52 -10.71,40.91 5.78,54.24l0.01 0.01c16.51,13.33 40.9,10.73 54.24,-5.8l109.96 -136.29 94.91 -20.89 -133.76 180.27 -82.5 304.93 -133.12 216.23c-17.2,27.93 -8.42,64.82 19.49,82.03l0 0c27.92,17.21 64.82,8.44 82.02,-19.5l134.97 -219.21c4.14,-5.7 7.32,-12.22 9.27,-19.39l50.41 -186.28 125.75 189.84 30.44 213.1c4.64,32.49 34.97,55.23 67.43,50.59l0.03 0c32.46,-4.65 55.2,-34.98 50.57,-67.47l-32.29 -225.95 -0.01 0c-1.15,-8.66 -4.23,-17.18 -9.35,-24.92l-136.89 -206.66 95.7 -116.63 0 30.94 0 37.82 0 0.03 0.02 0 88.38 153.99c10.57,18.41 34.25,24.81 52.63,14.25l0.02 -0.01c18.4,-10.56 24.8,-34.25 14.25,-52.65l-74.22 -129.32 0 -220.47c0.13,-58.12 -52.39,-97.14 -128.04,-81.85l-224.03 41.3z"/>
    <path class="fil2" d="M2834.55 594.15c-14.52,30.95 -45.99,52.4 -82.44,52.4 -50.25,0 -91,-40.76 -91,-91.03 0,-20.4 6.69,-39.22 18.01,-54.4l155.43 93.02z"/>
    <path class="fil2" d="M2779.93 415.96c50.27,0 91.02,40.76 91.02,91.05 0,17.37 -4.86,33.6 -13.29,47.4l38.79 23.21 -8.28 13.83 -8.77 -5.24 -31.39 -18.79 -153.5 -91.87c12.8,-34.78 46.21,-59.59 85.42,-59.59z"/>
    <path class="fil5" d="M5731.25 54.65c-141.04,38.52 -128.41,122.02 -128.09,280.27 0.45,220.04 -15.45,1105.84 5.54,1196.31 28.86,124.38 134.57,124 273.79,123.76 218.45,-0.38 1119.74,14.87 1205.18,-5.65 125.42,-30.13 122.06,-148.07 121.86,-283.03 -0.31,-218.93 15.16,-1110.34 -5.77,-1198.91 -28.75,-121.64 -146.53,-120.4 -277.62,-120.15 -209.01,0.4 -1118.89,-13.35 -1194.89,7.4z"/>
    <path class="fil2" d="M6814.61 647.34l-18.47 -184.11c-10.24,-102.08 -52.28,-185.24 -156.12,-216.51l-61.04 -18.37c-46.7,-35.55 -105.91,-49.51 -168.91,-50.54 -91.53,-1.48 -257.06,6.1 -321.98,78l-60.08 66.55c-6.04,5.94 -11.8,12.31 -17.25,19.12l-5.98 6.62 1.24 -0.5c-23.14,31.05 -40.34,70.8 -50.37,121.13 -9.91,55.77 -3.74,113.55 -14.16,166.95l-6.71 34.36 52.08 0 -7.56 51.67 453.87 0.17 49.31 49.86 331.59 0 0.02 120.47c2.48,64.6 -29.56,92.26 -97.5,87.35 -9.29,-0.66 -17.99,-2.15 -26.06,-4.56 16.48,48.91 25.28,72.36 -21.51,72.36l-21.64 0 -84.86 0c-7.28,0 -13.31,-8.13 -13.31,-15.44 0,-7.34 5.97,-15.95 13.31,-15.95l78.51 0c46.1,0 -2.51,-29.11 -11.65,-115.79l0 -0.06c-1.62,-8.45 -2.7,-17.65 -3.2,-27.67l-17.94 0.06c-2.03,17.99 -5.1,34.07 -9.52,48.23 -17.32,55.42 -55.56,81.64 -134.7,80.03 -123.99,-0.58 -131.37,-25.49 -163.98,-222.39l-323.49 0c-1.43,93.55 8.83,178.52 47.68,242.39 73,132.73 145.06,153.39 84.26,300.42l-26.33 67.5c-22.69,80.75 286.98,191.45 355.55,116.58 31.35,-46.37 55.1,-103.53 71.59,-171.09 103.24,27.65 162.82,12.74 185,-49.16 36.06,-132.54 50.9,-209.76 59.38,-280.84 64.08,-17.23 82.69,-43.76 83.44,-108.4l1.14 -124.05 101.38 0 -123.08 -124.41 -1.99 0z"/>
    <path class="fil2" d="M6763.64 784.71l0.01 108.48 0.04 0.97c1.34,35.13 -22.12,35.61 -43.46,35.09 -36.13,-2.61 -41.91,-25.37 -43.62,-59.3l-1.31 -26.05 20.9 0 27.42 30.2 12.72 -63.58 -74.5 0c-24.58,0.53 -35.22,-10.34 -49.1,-7.4 -30.15,6.39 -48.36,38.94 -59.71,94.47l-0.03 0.1 0 0.01c-10.14,41.57 -31.95,53.3 -88.36,52.64 -15.63,-0.17 -56.86,-0.39 -70.05,-10.43 -20.23,-15.37 -35.8,-112.67 -42.43,-155.2l411.47 0z"/>
    <rect class="fil6" transform="matrix(-6.27391 -0 3.99013 4.0335 6804.57 676.179)" width="59.94" height="16.55"/>
    <path class="fil6" d="M6520.93 641.21l-551.12 0c9.88,-50.59 3.56,-107.3 14.25,-167.43 28.59,-143.55 118.77,-206.9 324.62,-195.74 196.48,-1.73 180.12,60.54 199.07,188.08l13.19 175.1z"/>
    <path class="fil6" d="M6666.99 641.21l-106.04 0 -14.61 -181.19c-7.48,-156.75 -62.8,-200.96 -176.35,-213.21 -68.42,-7.38 -173.48,-6.5 -260.48,28.32 58.47,-64.76 226.22,-69.68 300.09,-68.48 215.26,3.52 230.09,164.5 244.19,259.46l13.19 175.1z"/>
    <path class="fil6" d="M6785 641.21l-83.39 0 -14.61 -181.19c-5.45,-86.96 -17.19,-108.48 -55.31,-185.7 91.55,27.57 127.35,100.55 135.74,191.78l17.56 175.1z"/>
    <rect class="fil6" x="6545.1" y="1113.71" width="137.5" height="34.18"/>
    <polygon class="fil7" points="6402.29,807.75 6516.75,807.75 6504.04,871.33 6476.61,841.12 6402.29,841.12 "/>
    <path class="fil6" d="M6073.67 832.42c28.45,-14.82 50.88,10.99 66.85,39.24l24.31 -10.96c-27.1,-48.39 -59.48,-76.77 -102.68,-54.28 -53.49,27.87 -40.4,90.46 -9.56,159.99 30.83,69.55 67.75,119.72 121.24,91.87 22.69,-11.82 33.39,-29.9 35.85,-52.09l-26.78 -2.55c-2.14,12.04 -8.29,22.23 -20.59,28.65 -42.54,22.16 -71.6,-46.45 -85.73,-78.36 -14.15,-31.91 -45.43,-99.37 -2.9,-121.51z"/>
   </g>
   <rect class="fil8" x="0" y="0" width="7257.88" height="2896.23"/>
  </g>
 </g>
</svg>
