<svg width="29" height="27" viewBox="0 0 29 27" fill="none" xmlns="http://www.w3.org/2000/svg">
    <path fill-rule="evenodd" clip-rule="evenodd" d="M10.7798 0C16.7328 0 21.5593 4.44968 21.5593 9.93753C21.5593 15.4254 16.7328 19.8748 10.7798 19.8748C4.82678 19.8748 0 15.4254 0 9.93753C0 4.44968 4.82678 0 10.7798 0ZM2.69495 9.93758C2.69495 14.0475 6.32141 17.3904 10.7797 17.3904C15.2378 17.3904 18.8646 14.0475 18.8646 9.93758C18.8646 5.82767 15.2378 2.4845 10.7797 2.4845C6.32141 2.4845 2.69495 5.82767 2.69495 9.93758Z" fill="white"/>
    <path fill-rule="evenodd" clip-rule="evenodd" d="M27.9561 22.2594L23.129 17.8091C22.1941 16.9472 20.7314 17.1057 19.811 17.9832C18.7941 18.9527 18.5893 20.6504 19.6223 21.6027L24.1454 25.7724C25.1983 26.7428 26.9054 26.7428 27.9561 25.7724C29.009 24.8035 29.0089 23.2298 27.9561 22.2594Z" fill="white"/>
    </svg>
    