<?xml version="1.0" encoding="UTF-8"?>
<svg xmlns="http://www.w3.org/2000/svg" xmlns:xlink="http://www.w3.org/1999/xlink" width="16px" height="17px" viewBox="0 0 16 16" version="1.1">
<g id="surface1">
<path style=" stroke:none;fill-rule:evenodd;fill:rgb(94.509804%,35.686275%,16.470588%);fill-opacity:1;" d="M 5.445312 13.996094 C 5.746094 13.980469 5.949219 13.792969 5.929688 13.558594 L 5.425781 6.199219 C 5.402344 5.960938 5.179688 5.792969 4.898438 5.808594 C 4.613281 5.828125 4.410156 6.011719 4.433594 6.25 L 4.9375 13.609375 C 4.957031 13.808594 5.179688 13.996094 5.445312 13.996094 Z M 5.445312 13.996094 "/>
<path style=" stroke:none;fill-rule:evenodd;fill:rgb(94.509804%,35.686275%,16.470588%);fill-opacity:1;" d="M 7.933594 13.996094 C 8.214844 13.996094 8.4375 13.808594 8.4375 13.574219 L 8.4375 6.214844 C 8.4375 5.980469 8.214844 5.792969 7.933594 5.792969 C 7.648438 5.792969 7.425781 5.980469 7.425781 6.214844 L 7.425781 13.574219 C 7.425781 13.808594 7.648438 13.996094 7.933594 13.996094 Z M 7.933594 13.996094 "/>
<path style=" stroke:none;fill-rule:evenodd;fill:rgb(94.509804%,35.686275%,16.470588%);fill-opacity:1;" d="M 10.382812 13.996094 C 10.664062 13.996094 10.886719 13.828125 10.90625 13.609375 L 11.414062 6.25 C 11.433594 6.011719 11.210938 5.828125 10.949219 5.808594 C 10.664062 5.792969 10.441406 5.980469 10.421875 6.199219 L 9.917969 13.558594 C 9.894531 13.777344 10.117188 13.980469 10.382812 13.996094 Z M 10.382812 13.996094 "/>
<path style=" stroke:none;fill-rule:evenodd;fill:rgb(94.509804%,35.686275%,16.470588%);fill-opacity:1;" d="M 10.585938 1.921875 L 14.652344 1.921875 C 15.320312 1.921875 15.867188 2.375 15.847656 2.914062 L 15.847656 3.605469 C 15.847656 4.160156 15.300781 4.613281 14.632812 4.613281 L 14.449219 4.613281 L 13.582031 14.519531 C 13.519531 15.34375 12.667969 16 11.679688 16 L 4.167969 16 C 3.175781 16 2.347656 15.34375 2.265625 14.519531 L 1.398438 4.632812 L 1.214844 4.632812 C 0.546875 4.632812 0 4.175781 0 3.621094 L 0 2.929688 C 0 2.375 0.546875 1.921875 1.214844 1.921875 L 5.261719 1.921875 L 5.566406 0.808594 C 5.707031 0.335938 6.214844 0 6.800781 0 L 9.066406 0.015625 C 9.652344 0.015625 10.179688 0.371094 10.300781 0.84375 Z M 6.800781 0.824219 C 6.679688 0.824219 6.558594 0.894531 6.539062 0.992188 L 6.292969 1.921875 L 9.59375 1.921875 L 9.351562 1.011719 C 9.308594 0.910156 9.207031 0.84375 9.085938 0.84375 Z M 14.652344 3.789062 C 14.753906 3.789062 14.855469 3.722656 14.855469 3.621094 L 14.855469 2.929688 C 14.855469 2.847656 14.773438 2.761719 14.652344 2.761719 L 1.214844 2.761719 C 1.113281 2.761719 1.011719 2.828125 1.011719 2.929688 L 1.011719 3.621094 C 1.011719 3.707031 1.09375 3.789062 1.214844 3.789062 Z M 12.609375 14.46875 C 12.570312 14.871094 12.164062 15.175781 11.699219 15.175781 L 4.1875 15.175781 C 3.703125 15.175781 3.320312 14.871094 3.277344 14.46875 L 2.410156 4.632812 L 13.457031 4.632812 Z M 12.609375 14.46875 "/>
</g>
</svg>
